<svg width="100" height="167" viewBox="0 0 100 167" fill="none" xmlns="http://www.w3.org/2000/svg">
<path d="M15.8954 2H27.3406C27.959 2 28.5522 2.25111 28.9895 2.69809C29.4268 3.14508 29.6725 3.75131 29.6725 4.38344V44.8988C29.6721 45.4996 29.8259 46.0901 30.1185 46.6112C30.411 47.1324 30.8322 47.566 31.3399 47.8688L31.4577 47.9368C34.376 49.7145 36.7908 52.2387 38.464 55.2607C40.1373 58.2826 41.0113 61.6981 40.9999 65.1704V160.06C40.9999 161.37 40.4907 162.627 39.5843 163.553C38.678 164.48 37.4487 165 36.1669 165H6.83347C5.55167 165 4.32237 164.48 3.41601 163.553C2.50964 162.627 2.00045 161.37 2.00045 160.06V65.1704C1.97996 61.9282 2.66289 58.7218 4.00011 55.7817C5.38054 52.8024 7.66112 49.607 11.3856 47.9954C12.0352 47.7104 12.5885 47.2365 12.9768 46.6328C13.365 46.029 13.5712 45.3219 13.5695 44.5993L13.6299 4.32787C13.6299 3.71261 13.8682 3.12237 14.2927 2.68617C14.7172 2.24996 15.2934 2.00326 15.8954 2V2Z" fill="#00FF47" stroke="#00FF47" stroke-width="4" stroke-miterlimit="10"/>
<path d="M91.2291 165H59.7664C57.8685 165 57.2936 162.367 59.0369 161.589C62.437 160.063 68.0007 159.672 71.0916 159.575C71.7028 159.557 72.2832 159.299 72.71 158.856C73.1369 158.414 73.3767 157.82 73.3789 157.202L73.5087 133.093C73.517 132.301 73.2842 131.525 72.8419 130.871C72.3995 130.217 71.769 129.717 71.036 129.438C47.5695 120.683 52.7994 97.4688 55.3371 89.6297C55.5855 88.8638 56.067 88.1971 56.7126 87.7247C57.3583 87.2524 58.135 86.9987 58.9318 87H92.4655C93.1423 86.9993 93.8022 87.2134 94.3523 87.6123C94.9024 88.0112 95.3149 88.5746 95.5317 89.2232C98.0044 96.6402 103.859 120.555 79.9162 129.457C79.2038 129.716 78.588 130.192 78.1531 130.818C77.7182 131.445 77.4854 132.193 77.4868 132.959L77.6166 157.202C77.6187 157.82 77.8586 158.414 78.2854 158.856C78.7123 159.299 79.2927 159.557 79.9039 159.575C82.9948 159.672 88.5585 160.063 91.9585 161.589C93.7018 162.38 93.1362 165 91.2291 165Z" fill="#00FF47" stroke="#00FF47" stroke-width="4" stroke-miterlimit="10"/>
</svg>
