<svg width="77" height="122" viewBox="0 0 77 122" fill="none" xmlns="http://www.w3.org/2000/svg">
<path d="M13.6199 4H21.5435C21.9716 4 22.3823 4.17562 22.685 4.48824C22.9878 4.80085 23.1579 5.22484 23.1579 5.66694V34.0028C23.1576 34.4231 23.2641 34.836 23.4666 35.2005C23.6692 35.565 23.9607 35.8682 24.3122 36.08L24.3938 36.1275C26.4141 37.3709 28.0859 39.1363 29.2443 41.2498C30.4027 43.3633 31.0078 45.752 30.9999 48.1805V114.545C30.9999 115.461 30.6474 116.34 30.0199 116.988C29.3924 117.636 28.5414 118 27.654 118H7.34625C6.45885 118 5.6078 117.636 4.98031 116.988C4.35283 116.34 4.00031 115.461 4.00031 114.545V48.1805C3.98613 45.913 4.45893 43.6704 5.38469 41.6142C6.34037 39.5305 7.91924 37.2957 10.4977 36.1686C10.9474 35.9692 11.3305 35.6378 11.5993 35.2155C11.8681 34.7933 12.0108 34.2987 12.0096 33.7934L12.0515 5.62808C12.0515 5.19778 12.2164 4.78497 12.5103 4.4799C12.8042 4.17482 13.2031 4.00228 13.6199 4V4Z" fill="#05FF00" stroke="#05FF00" stroke-width="7" stroke-miterlimit="10"/>
<path d="M68.1851 118H45.8116C44.4621 118 44.0532 116.144 45.2929 115.595C47.7107 114.519 51.6671 114.243 53.8651 114.175C54.2998 114.162 54.7125 113.98 55.016 113.668C55.3196 113.356 55.4901 112.937 55.4917 112.501L55.584 95.5017C55.5899 94.943 55.4243 94.396 55.1098 93.9349C54.7952 93.4739 54.3469 93.121 53.8256 92.9242C37.1383 86.7507 40.8574 70.3818 42.6619 64.8543C42.8386 64.3142 43.1809 63.8441 43.6401 63.511C44.0992 63.178 44.6516 62.9991 45.2182 63H69.0643C69.5456 62.9995 70.0149 63.1505 70.4061 63.4318C70.7973 63.713 71.0906 64.1103 71.2448 64.5677C73.0032 69.7976 77.1662 86.6603 60.1404 92.9375C59.6338 93.1202 59.1959 93.4556 58.8866 93.8976C58.5774 94.3397 58.4119 94.8668 58.4128 95.4069L58.5051 112.501C58.5066 112.937 58.6772 113.356 58.9808 113.668C59.2843 113.98 59.697 114.162 60.1316 114.175C62.3296 114.243 66.2861 114.519 68.7039 115.595C69.9435 116.152 69.5413 118 68.1851 118Z" fill="#05FF00" stroke="#05FF00" stroke-width="7" stroke-miterlimit="10"/>
</svg>
