<svg width="103" height="130" viewBox="0 0 103 130" fill="none" xmlns="http://www.w3.org/2000/svg">
<path fill-rule="evenodd" clip-rule="evenodd" d="M2.27542 14.9694C-2.87891 9.141 1.29005 0 9.10405 0H92.907C100.72 0 104.886 9.14182 99.7361 14.9689L99.7355 14.9695L57.8347 62.3586C57.8345 62.3588 57.8343 62.3591 57.8341 62.3593C56.9814 63.3239 55.9312 64.0968 54.7535 64.6264C53.5756 65.1561 52.2973 65.4301 51.0042 65.4301C49.711 65.4301 48.4328 65.1561 47.2548 64.6264C46.0771 64.0968 45.0269 63.3239 44.1742 62.3592M44.1737 62.3586L2.27582 14.9699C2.27569 14.9697 2.27556 14.9696 2.27542 14.9694M55.2623 60.1189L52.6968 57.8839L94.5976 10.4948C95.8753 9.04899 94.8384 6.78471 92.907 6.78471H9.10405C7.1684 6.78471 6.13496 9.04933 7.41247 10.4937L49.3117 57.884L49.3122 57.8845C49.5234 58.1236 49.7836 58.3151 50.0754 58.4463C50.3672 58.5775 50.6839 58.6454 51.0042 58.6454C51.3245 58.6454 51.6412 58.5775 51.933 58.4463C52.2247 58.3151 52.4849 58.1236 52.6962 57.8845L55.2623 60.1189Z" fill="#EBFF00"/>
<path d="M52.8955 50.6612L71.4975 29.429C72.9241 27.7998 71.7693 25.2446 69.6063 25.2446H32.4024C30.2382 25.2446 29.0834 27.7998 30.5112 29.429L49.112 50.6612C49.3482 50.9309 49.6391 51.147 49.9653 51.2951C50.2916 51.4431 50.6456 51.5197 51.0037 51.5197C51.3619 51.5197 51.7159 51.4431 52.0422 51.2951C52.3684 51.147 52.6593 50.9309 52.8955 50.6612V50.6612Z" fill="#EBFF00"/>
<path fill-rule="evenodd" clip-rule="evenodd" d="M28.2603 31.9923C24.9308 28.159 27.6274 22.1533 32.6667 22.1533H69.3449C74.3848 22.1533 77.0779 28.1598 73.7518 31.9917L55.4127 53.108C55.4125 53.1082 55.4123 53.1084 55.4121 53.1087C54.8617 53.7425 54.184 54.2502 53.4242 54.5981C52.6642 54.946 51.8395 55.126 51.0052 55.126C50.1709 55.126 49.3462 54.946 48.5862 54.5981C47.8264 54.2502 47.1486 53.7424 46.5982 53.1086M46.5977 53.108L28.2607 31.9927C28.2606 31.9926 28.2604 31.9924 28.2603 31.9923M52.8669 50.8488L51.0057 49.1961L51.0053 49.1957L50.3284 48.5947C50.3282 48.5949 50.328 48.5951 50.3278 48.5953L51.0048 49.1961L51.0052 49.1965L51.0057 49.197L52.8669 50.8488ZM51.0052 47.8153L67.3509 28.9943H34.6605L51.0052 47.8153Z" fill="#EBFF00"/>
<path d="M51.3683 60.2783H50.124C49.1872 60.2783 48.4277 61.04 48.4277 61.9796V113.703C48.4277 114.643 49.1872 115.404 50.124 115.404H51.3683C52.3051 115.404 53.0645 114.643 53.0645 113.703V61.9796C53.0645 61.04 52.3051 60.2783 51.3683 60.2783Z" fill="#EBFF00"/>
<path fill-rule="evenodd" clip-rule="evenodd" d="M26.3351 117.875C26.3348 117.875 26.336 117.871 26.3394 117.863C26.3371 117.871 26.3354 117.875 26.3351 117.875ZM26.4265 117.723C26.5317 117.582 26.7503 117.345 27.19 117.021C28.1856 116.287 29.8424 115.484 32.1942 114.75C36.8577 113.296 43.5091 112.344 51.0052 112.344C58.5013 112.344 65.1526 113.296 69.8162 114.75C72.168 115.484 73.8248 116.287 74.8204 117.021C75.2601 117.345 75.4786 117.582 75.5839 117.723C75.4786 117.864 75.2601 118.101 74.8204 118.425C73.8248 119.159 72.168 119.962 69.8162 120.695C65.1526 122.15 58.5013 123.102 51.0052 123.102C43.5091 123.102 36.8577 122.15 32.1942 120.695C29.8424 119.962 28.1856 119.159 27.19 118.425C26.7503 118.101 26.5317 117.864 26.4265 117.723ZM75.6752 117.875C75.675 117.875 75.6732 117.871 75.6709 117.863C75.6744 117.871 75.6755 117.875 75.6752 117.875ZM75.6709 117.583C75.6732 117.575 75.675 117.571 75.6752 117.571C75.6755 117.571 75.6744 117.575 75.6709 117.583ZM26.3394 117.583C26.336 117.575 26.3348 117.571 26.3351 117.571C26.3354 117.571 26.3371 117.575 26.3394 117.583ZM30.1636 108.331C35.648 106.621 43.016 105.616 51.0052 105.616C58.9944 105.616 66.3624 106.621 71.8468 108.331C74.569 109.18 77.0184 110.261 78.8604 111.619C80.6386 112.93 82.4322 114.955 82.4322 117.723C82.4322 120.491 80.6386 122.516 78.8604 123.827C77.0184 125.185 74.569 126.266 71.8468 127.115C66.3624 128.825 58.9944 129.83 51.0052 129.83C43.016 129.83 35.648 128.825 30.1636 127.115C27.4414 126.266 24.992 125.185 23.1499 123.827C21.3717 122.516 19.5781 120.491 19.5781 117.723C19.5781 114.955 21.3717 112.93 23.1499 111.619C24.992 110.261 27.4414 109.18 30.1636 108.331Z" fill="#EBFF00"/>
</svg>
