<svg width="218" height="105" viewBox="0 0 218 105" fill="none" xmlns="http://www.w3.org/2000/svg">
<path d="M21.5708 105H6.06679V30.9297H0V28.8498L8.15646 0H21.5708V105Z" fill="#5B58FF"/>
<path d="M86.7551 95.4058C86.7551 101.802 83.5869 105 77.2505 105H44.355C38.1084 105 34.9852 101.802 34.9852 95.4058V9.66134C34.9852 3.22045 38.1758 0 44.5572 0H77.2505C83.5869 0 86.7551 3.22045 86.7551 9.66134V95.4058ZM71.3185 91.5144V13.4856H50.4892V91.5144H71.3185Z" fill="#5B58FF"/>
<path d="M151.198 95.4058C151.198 101.802 148.03 105 141.693 105H108.798C102.551 105 99.428 101.802 99.428 95.4058V9.66134C99.428 3.22045 102.619 0 109 0H141.693C148.03 0 151.198 3.22045 151.198 9.66134V95.4058ZM135.761 91.5144V13.4856H114.932V91.5144H135.761Z" fill="#5B58FF"/>
<path d="M218 65.5495H197.44V85.6102H183.082V65.5495H162.523V52.5335H183.082V32.4728H197.44V52.5335H218V65.5495Z" fill="#5B58FF"/>
</svg>
