<svg width="329" height="1121" viewBox="0 0 329 1121" fill="none" xmlns="http://www.w3.org/2000/svg">
<path d="M60 207.5L178.5 101V183L60 289.5V207.5Z" fill="white"/>
<path d="M106.305 220.048L96.4997 229.018L79.7157 210.669L88.7085 202.443C92.0634 199.374 95.2016 199.436 98.1228 202.63C100.084 204.774 100.514 206.934 99.4103 209.107C102.094 207.944 104.507 208.533 106.648 210.873C107.966 212.314 108.593 213.879 108.529 215.569C108.476 217.247 107.735 218.74 106.305 220.048ZM86.5263 210.093L90.6393 214.589L93.5792 211.9C95.7121 209.949 96.0667 208.195 94.643 206.639C93.3248 205.198 91.5992 205.453 89.4663 207.404L86.5263 210.093ZM93.3602 217.564L97.6788 222.285L101.155 219.105C103.138 217.292 103.417 215.606 101.994 214.05C101.287 213.277 100.501 212.916 99.6366 212.966C98.7612 213.005 97.4761 213.799 95.7813 215.349L93.3602 217.564ZM112.393 214.48L109.17 200.053L95.8177 195.908L100.694 191.447L107.977 194.061L106.159 186.448L110.829 182.177L113.684 195.543L128.113 200.1L123.219 204.577L114.953 201.687L117.045 210.225L112.393 214.48ZM120.894 189.361C119.248 187.562 118.108 185.598 117.473 183.469C116.838 181.339 116.76 179.378 117.238 177.585C117.715 175.793 118.675 174.238 120.116 172.919C122.537 170.705 125.31 169.916 128.433 170.553C131.546 171.178 134.263 172.759 136.583 175.295C138.313 177.186 139.51 179.224 140.176 181.411C140.853 183.586 140.957 185.598 140.488 187.446C140.019 189.272 139.088 190.824 137.693 192.1C135.456 194.146 132.819 194.99 129.783 194.634C126.746 194.277 123.783 192.52 120.894 189.361ZM125.212 185.887C126.91 187.743 128.56 188.817 130.162 189.11C131.753 189.391 133.061 189.062 134.087 188.124C135.09 187.206 135.512 185.942 135.351 184.331C135.191 182.72 134.256 180.981 132.548 179.113C130.881 177.292 129.247 176.235 127.646 175.942C126.044 175.65 124.736 175.967 123.721 176.895C122.718 177.813 122.291 179.082 122.44 180.704C122.601 182.314 123.525 184.042 125.212 185.887ZM158.651 164.765L160.242 163.31L168.373 172.199L165.157 175.141L160.711 170.281L149.298 180.722L153.743 185.582L150.526 188.524L142.395 179.635L143.986 178.18C143.54 174.543 139.998 169.016 133.361 161.598L145.553 150.446L158.651 164.765ZM147.877 174.62L154.656 168.419L145.26 158.147L140.469 162.529C144.75 167.486 147.219 171.516 147.877 174.62Z" fill="#FF5858"/>
<path d="M47 423.452L269 192V889.548L47 1121V423.452Z" fill="#FF5858"/>
<rect x="47" y="400" width="23" height="721" fill="#5886FF"/>
<ellipse cx="234" cy="632.5" rx="16" ry="24.5" fill="#5886FF"/>
<ellipse cx="241" cy="632.5" rx="16" ry="24.5" fill="#1E2165"/>
<ellipse cx="249.111" cy="174.154" rx="14.5" ry="14" transform="rotate(-46.7658 249.111 174.154)" fill="white"/>
<ellipse cx="211.461" cy="214.931" rx="14" ry="14.5" transform="rotate(-46.7658 211.461 214.931)" fill="white"/>
<ellipse cx="173.808" cy="255.709" rx="14.5" ry="14" transform="rotate(-46.7658 173.808 255.709)" fill="white"/>
<circle cx="135.811" cy="296.851" r="14.5" transform="rotate(-46.7658 135.811 296.851)" fill="white"/>
<circle cx="97.4302" cy="336.944" r="14" transform="rotate(-46.7658 97.4302 336.944)" fill="white"/>
<circle cx="59.7564" cy="377.014" r="14" transform="rotate(-46.7658 59.7564 377.014)" fill="white"/>
<circle cx="-14.8628" cy="457.84" r="14" transform="rotate(-46.7658 -14.8628 457.84)" fill="white"/>
</svg>
