<svg width="1551" height="1106" viewBox="0 0 1551 1106" fill="none" xmlns="http://www.w3.org/2000/svg">
<rect x="0.826172" y="3.22949" width="1550.03" height="1102.24" fill="#1E2165"/>
<rect x="0.855469" width="258.333" height="275.56" fill="white"/>
<rect x="517.523" width="258.333" height="275.56" fill="white"/>
<rect x="1034.19" width="258.333" height="275.56" fill="white"/>
<rect x="0.855469" y="550.044" width="258.333" height="275.56" fill="white"/>
<rect x="517.523" y="550.044" width="258.333" height="275.56" fill="white"/>
<rect x="1034.19" y="550.044" width="258.333" height="275.56" fill="white"/>
<rect x="259.188" y="275.561" width="258.333" height="275.56" fill="white"/>
<rect x="775.855" y="275.561" width="258.333" height="275.56" fill="white"/>
<rect x="1292.52" y="275.561" width="258.333" height="275.56" fill="white"/>
<rect x="259.188" y="827.758" width="258.333" height="275.56" fill="white"/>
<rect x="775.951" y="826" width="258.973" height="279" fill="white"/>
<rect x="1292.52" y="827.758" width="258.333" height="275.56" fill="white"/>
<rect x="0.855469" y="275.561" width="258.333" height="275.56" fill="#1E2165"/>
<rect x="517.523" y="275.561" width="258.333" height="275.56" fill="#1E2165"/>
<rect x="1034.19" y="275.561" width="258.333" height="275.56" fill="#1E2165"/>
<rect x="259.188" y="550.044" width="258.333" height="275.56" fill="#1E2165"/>
<rect x="775.855" y="550.044" width="258.333" height="275.56" fill="#1E2165"/>
<rect x="1292.52" y="550.044" width="258.333" height="275.56" fill="#1E2165"/>
<rect x="259.188" width="258.333" height="275.56" fill="#1E2165"/>
<rect x="775.855" width="258.333" height="275.56" fill="#1E2165"/>
<rect x="1292.52" width="258.333" height="275.56" fill="#1E2165"/>
<rect x="0.855469" y="827.758" width="258.333" height="275.56" fill="#1E2165"/>
<rect x="517.984" y="828" width="257.966" height="277" fill="#1E2165"/>
<rect x="1034.92" y="828" width="258.973" height="277" fill="#1E2165"/>
<path d="M62.771 329.381H220.428C237.285 396.931 231.627 465.595 220.428 491.728C209.228 517.861 76.986 514.854 62.771 491.728C48.556 468.602 40.148 395.475 62.771 329.381Z" fill="#E8EEFE"/>
<path d="M578.371 881.579H736.027C752.884 949.129 747.227 1017.79 736.027 1043.93C724.827 1070.06 592.586 1067.05 578.371 1043.93C564.156 1020.8 555.748 947.673 578.371 881.579Z" fill="#E8EEFE"/>
<path d="M836.169 50.5913H993.826C1010.68 118.142 1005.03 186.806 993.826 212.938C982.626 239.071 850.384 236.065 836.169 212.938C821.954 189.812 813.546 116.686 836.169 50.5913Z" fill="#E8EEFE"/>
<path d="M220.983 332.61C220.983 341.528 185.59 348.757 141.931 348.757C98.2716 348.757 62.8789 341.528 62.8789 332.61C62.8789 323.693 98.2716 316.464 141.931 316.464C185.59 316.464 220.983 323.693 220.983 332.61Z" fill="white"/>
<path d="M736.584 884.807C736.584 893.725 701.191 900.953 657.532 900.953C613.873 900.953 578.48 893.725 578.48 884.807C578.48 875.89 613.873 868.661 657.532 868.661C701.191 868.661 736.584 875.89 736.584 884.807Z" fill="white"/>
<path d="M994.381 53.8204C994.381 62.7377 958.988 69.9666 915.329 69.9666C871.67 69.9666 836.277 62.7377 836.277 53.8204C836.277 44.9032 871.67 37.6743 915.329 37.6743C958.988 37.6743 994.381 44.9032 994.381 53.8204Z" fill="white"/>
<path d="M217.962 491.919C217.962 500.836 183.471 508.065 140.925 508.065C98.3777 508.065 63.8867 500.836 63.8867 491.919C63.8867 483.002 98.3777 475.773 140.925 475.773C183.471 475.773 217.962 483.002 217.962 491.919Z" fill="#E8EEFE"/>
<path d="M733.56 1044.12C733.56 1053.03 699.069 1060.26 656.522 1060.26C613.975 1060.26 579.484 1053.03 579.484 1044.12C579.484 1035.2 613.975 1027.97 656.522 1027.97C699.069 1027.97 733.56 1035.2 733.56 1044.12Z" fill="#E8EEFE"/>
<path d="M991.361 213.129C991.361 222.046 956.87 229.275 914.323 229.275C871.776 229.275 837.285 222.046 837.285 213.129C837.285 204.212 871.776 196.983 914.323 196.983C956.87 196.983 991.361 204.212 991.361 213.129Z" fill="#E8EEFE"/>
<path d="M103.432 455.321H93.8282V405.205H90.0703V403.798L95.1225 384.278H103.432V455.321Z" fill="#1E2165"/>
<path d="M143.807 448.83C143.807 453.157 141.845 455.321 137.92 455.321H117.544C113.675 455.321 111.741 453.157 111.741 448.83V390.815C111.741 386.457 113.717 384.278 117.67 384.278H137.92C141.845 384.278 143.807 386.457 143.807 390.815V448.83ZM134.246 446.197V393.403H121.344V446.197H134.246Z" fill="#1E2165"/>
<path d="M183.724 448.83C183.724 453.157 181.762 455.321 177.837 455.321H157.461C153.592 455.321 151.657 453.157 151.657 448.83V390.815C151.657 386.457 153.634 384.278 157.586 384.278H177.837C181.762 384.278 183.724 386.457 183.724 390.815V448.83ZM174.162 446.197V393.403H161.261V446.197H174.162Z" fill="#1E2165"/>
<path d="M619.031 1007.52H609.428V957.402H605.67V955.995L610.722 936.475H619.031V1007.52Z" fill="#1E2165"/>
<path d="M659.407 1001.03C659.407 1005.35 657.445 1007.52 653.52 1007.52H633.144C629.275 1007.52 627.34 1005.35 627.34 1001.03V943.012C627.34 938.654 629.316 936.475 633.269 936.475H653.52C657.445 936.475 659.407 938.654 659.407 943.012V1001.03ZM649.845 998.394V945.599H636.944V998.394H649.845Z" fill="#1E2165"/>
<path d="M699.324 1001.03C699.324 1005.35 697.361 1007.52 693.436 1007.52H673.061C669.191 1007.52 667.257 1005.35 667.257 1001.03V943.012C667.257 938.654 669.233 936.475 673.186 936.475H693.436C697.361 936.475 699.324 938.654 699.324 943.012V1001.03ZM689.762 998.394V945.599H676.86V998.394H689.762Z" fill="#1E2165"/>
<path d="M876.83 176.531H867.227V126.415H863.469V125.008L868.521 105.488H876.83V176.531Z" fill="#1E2165"/>
<path d="M917.206 170.04C917.206 174.367 915.243 176.531 911.319 176.531H890.943C887.074 176.531 885.139 174.367 885.139 170.04V112.025C885.139 107.667 887.115 105.488 891.068 105.488H911.319C915.243 105.488 917.206 107.667 917.206 112.025V170.04ZM907.644 167.407V114.613H894.742V167.407H907.644Z" fill="#1E2165"/>
<path d="M957.123 170.04C957.123 174.367 955.16 176.531 951.235 176.531H930.859C926.99 176.531 925.056 174.367 925.056 170.04V112.025C925.056 107.667 927.032 105.488 930.985 105.488H951.235C955.16 105.488 957.123 107.667 957.123 112.025V170.04ZM947.561 167.407V114.613H934.659V167.407H947.561Z" fill="#1E2165"/>
<path d="M371.562 16.1465H386.929C387.76 16.1465 388.556 16.5014 389.143 17.133C389.73 17.7647 390.06 18.6214 390.06 19.5148V76.771C390.06 77.6201 390.266 78.4545 390.659 79.191C391.052 79.9275 391.617 80.5403 392.299 80.9682L392.457 81.0642C396.376 83.5765 399.618 87.1437 401.865 91.4144C404.111 95.685 405.285 100.512 405.27 105.419V239.517C405.27 241.368 404.586 243.144 403.369 244.453C402.152 245.762 400.501 246.498 398.78 246.498H359.394C357.673 246.498 356.023 245.762 354.806 244.453C353.589 243.144 352.905 241.368 352.905 239.517V105.419C352.877 100.837 353.794 96.3056 355.59 92.1507C357.443 87.9404 360.506 83.4246 365.506 81.1471C366.379 80.7443 367.122 80.0747 367.643 79.2214C368.164 78.3681 368.441 77.3689 368.439 76.3478L368.52 19.4362C368.52 18.5667 368.84 17.7326 369.41 17.1162C369.98 16.4997 370.753 16.1511 371.562 16.1465V16.1465Z" fill="#FF5858" stroke="#FF5858" stroke-width="7" stroke-miterlimit="10"/>
<path d="M1397.73 22.605H1413.09C1413.92 22.605 1414.72 22.9599 1415.31 23.5915C1415.89 24.2232 1416.22 25.0799 1416.22 25.9733V83.2295C1416.22 84.0786 1416.43 84.913 1416.82 85.6495C1417.22 86.386 1417.78 86.9987 1418.46 87.4267L1418.62 87.5227C1422.54 90.035 1425.78 93.6022 1428.03 97.8729C1430.28 102.143 1431.45 106.97 1431.43 111.877V245.975C1431.43 247.827 1430.75 249.602 1429.53 250.912C1428.32 252.221 1426.67 252.956 1424.94 252.956H1385.56C1383.84 252.956 1382.19 252.221 1380.97 250.912C1379.75 249.602 1379.07 247.827 1379.07 245.975V111.877C1379.04 107.295 1379.96 102.764 1381.75 98.6092C1383.61 94.3989 1386.67 89.8831 1391.67 87.6056C1392.54 87.2028 1393.29 86.5332 1393.81 85.6799C1394.33 84.8266 1394.61 83.8273 1394.6 82.8063L1394.68 25.8947C1394.68 25.0252 1395 24.1911 1395.57 23.5747C1396.14 22.9582 1396.92 22.6096 1397.73 22.605V22.605Z" fill="#FF5858" stroke="#FF5858" stroke-width="7" stroke-miterlimit="10"/>
<path d="M1125.83 850.363H1141.19C1142.03 850.363 1142.82 850.718 1143.41 851.349C1144 851.981 1144.33 852.838 1144.33 853.731V910.987C1144.33 911.836 1144.53 912.671 1144.92 913.407C1145.32 914.144 1145.88 914.757 1146.56 915.185L1146.72 915.281C1150.64 917.793 1153.88 921.36 1156.13 925.631C1158.38 929.901 1159.55 934.728 1159.54 939.635V1073.73C1159.54 1075.58 1158.85 1077.36 1157.63 1078.67C1156.42 1079.98 1154.77 1080.71 1153.05 1080.71H1113.66C1111.94 1080.71 1110.29 1079.98 1109.07 1078.67C1107.85 1077.36 1107.17 1075.58 1107.17 1073.73V939.635C1107.14 935.053 1108.06 930.522 1109.86 926.367C1111.71 922.157 1114.77 917.641 1119.77 915.363C1120.64 914.961 1121.39 914.291 1121.91 913.438C1122.43 912.584 1122.71 911.585 1122.7 910.564L1122.79 853.653C1122.79 852.783 1123.11 851.949 1123.68 851.332C1124.25 850.716 1125.02 850.367 1125.83 850.363V850.363Z" fill="#FF5858" stroke="#FF5858" stroke-width="7" stroke-miterlimit="10"/>
<path d="M471.856 246.498H430.315C427.809 246.498 427.05 242.792 429.352 241.696C433.841 239.548 441.187 238.998 445.268 238.861C446.075 238.836 446.841 238.473 447.405 237.85C447.968 237.227 448.285 236.391 448.288 235.521L448.459 201.586C448.47 200.47 448.163 199.378 447.579 198.458C446.995 197.537 446.162 196.833 445.194 196.44C414.211 184.116 421.116 151.44 424.467 140.406C424.795 139.328 425.43 138.389 426.283 137.724C427.135 137.059 428.161 136.702 429.213 136.704H473.488C474.382 136.703 475.253 137.005 475.98 137.566C476.706 138.127 477.25 138.921 477.537 139.834C480.801 150.274 488.531 183.936 456.919 196.467C455.978 196.831 455.165 197.501 454.591 198.383C454.017 199.266 453.71 200.318 453.711 201.396L453.883 235.521C453.886 236.391 454.202 237.227 454.766 237.85C455.33 238.473 456.096 238.836 456.903 238.861C460.984 238.998 468.33 239.548 472.819 241.696C475.121 242.809 474.374 246.498 471.856 246.498Z" fill="#FF5858" stroke="#FF5858" stroke-width="7" stroke-miterlimit="10"/>
<path d="M1498.02 252.956H1456.48C1453.97 252.956 1453.22 249.25 1455.52 248.154C1460.01 246.006 1467.35 245.456 1471.43 245.32C1472.24 245.295 1473.01 244.932 1473.57 244.309C1474.13 243.685 1474.45 242.85 1474.45 241.979L1474.63 208.044C1474.64 206.929 1474.33 205.837 1473.74 204.916C1473.16 203.996 1472.33 203.292 1471.36 202.899C1440.38 190.575 1447.28 157.899 1450.63 146.864C1450.96 145.786 1451.6 144.848 1452.45 144.183C1453.3 143.518 1454.33 143.161 1455.38 143.163H1499.65C1500.55 143.162 1501.42 143.463 1502.15 144.024C1502.87 144.586 1503.42 145.379 1503.7 146.292C1506.97 156.732 1514.7 190.394 1483.09 202.925C1482.14 203.29 1481.33 203.959 1480.76 204.842C1480.18 205.724 1479.88 206.777 1479.88 207.855L1480.05 241.979C1480.05 242.85 1480.37 243.685 1480.93 244.309C1481.5 244.932 1482.26 245.295 1483.07 245.32C1487.15 245.456 1494.5 246.006 1498.98 248.154C1501.29 249.268 1500.54 252.956 1498.02 252.956Z" fill="#FF5858" stroke="#FF5858" stroke-width="7" stroke-miterlimit="10"/>
<path d="M1226.12 1080.71H1184.58C1182.08 1080.71 1181.32 1077.01 1183.62 1075.91C1188.11 1073.76 1195.45 1073.21 1199.54 1073.08C1200.34 1073.05 1201.11 1072.69 1201.67 1072.07C1202.24 1071.44 1202.55 1070.61 1202.56 1069.74L1202.73 1035.8C1202.74 1034.69 1202.43 1033.59 1201.85 1032.67C1201.26 1031.75 1200.43 1031.05 1199.46 1030.66C1168.48 1018.33 1175.38 985.656 1178.73 974.622C1179.06 973.543 1179.7 972.605 1180.55 971.94C1181.4 971.275 1182.43 970.918 1183.48 970.92H1227.76C1228.65 970.919 1229.52 971.22 1230.25 971.782C1230.97 972.343 1231.52 973.136 1231.8 974.049C1235.07 984.49 1242.8 1018.15 1211.19 1030.68C1210.25 1031.05 1209.43 1031.72 1208.86 1032.6C1208.28 1033.48 1207.98 1034.53 1207.98 1035.61L1208.15 1069.74C1208.15 1070.61 1208.47 1071.44 1209.03 1072.07C1209.6 1072.69 1210.36 1073.05 1211.17 1073.08C1215.25 1073.21 1222.6 1073.76 1227.09 1075.91C1229.39 1077.03 1228.64 1080.71 1226.12 1080.71Z" fill="#FF5858" stroke="#FF5858" stroke-width="7" stroke-miterlimit="10"/>
<path fill-rule="evenodd" clip-rule="evenodd" d="M844.527 333.67C837.25 324.875 843.136 311.082 854.167 311.082H972.47C983.5 311.082 989.38 324.877 982.111 333.669L982.11 333.67L922.959 405.178C922.959 405.178 922.959 405.179 922.958 405.179C921.755 406.634 920.272 407.801 918.61 408.6C916.947 409.399 915.142 409.813 913.317 409.813C911.491 409.813 909.687 409.399 908.024 408.6C906.361 407.801 904.878 406.634 903.675 405.179M903.674 405.178L844.527 333.671C844.527 333.671 844.527 333.67 844.527 333.67M919.328 401.798L915.706 398.426L974.857 326.918C976.661 324.736 975.197 321.32 972.47 321.32H854.167C851.434 321.32 849.975 324.737 851.779 326.917L910.927 398.426L910.928 398.427C911.226 398.787 911.594 399.076 912.005 399.274C912.417 399.472 912.864 399.575 913.317 399.575C913.769 399.575 914.216 399.472 914.628 399.274C915.04 399.076 915.407 398.787 915.705 398.427L919.328 401.798Z" fill="#FF5858"/>
<path d="M915.988 387.528L942.248 355.489C944.262 353.031 942.632 349.175 939.578 349.175H887.058C884.002 349.175 882.372 353.031 884.388 355.489L910.646 387.528C910.98 387.935 911.391 388.261 911.851 388.484C912.312 388.707 912.811 388.823 913.317 388.823C913.823 388.823 914.322 388.707 914.783 388.484C915.243 388.261 915.654 387.935 915.988 387.528V387.528Z" fill="#FF5858"/>
<path fill-rule="evenodd" clip-rule="evenodd" d="M881.207 359.357C876.507 353.573 880.313 344.511 887.427 344.511H939.206C946.321 344.511 950.122 353.574 945.427 359.356L919.538 391.22C919.537 391.22 919.537 391.22 919.537 391.221C918.76 392.177 917.803 392.943 916.731 393.468C915.658 393.993 914.493 394.265 913.316 394.265C912.138 394.265 910.974 393.993 909.901 393.468C908.828 392.943 907.871 392.177 907.094 391.221M907.094 391.22L881.208 359.358C881.207 359.358 881.207 359.357 881.207 359.357M915.944 387.811L913.316 385.317L913.316 385.316L912.36 384.409C912.36 384.41 912.36 384.41 912.359 384.41L913.315 385.317L913.316 385.317L913.317 385.318L915.944 387.811ZM913.316 383.233L936.391 354.833H890.242L913.316 383.233Z" fill="#FF5858"/>
<path d="M913.831 402.039H912.074C910.752 402.039 909.68 403.188 909.68 404.606V482.654C909.68 484.072 910.752 485.221 912.074 485.221H913.831C915.153 485.221 916.225 484.072 916.225 482.654V404.606C916.225 403.188 915.153 402.039 913.831 402.039Z" fill="#FF5858"/>
<path fill-rule="evenodd" clip-rule="evenodd" d="M878.492 488.949C878.491 488.949 878.493 488.943 878.498 488.931C878.495 488.943 878.492 488.949 878.492 488.949ZM878.621 488.719C878.769 488.506 879.078 488.149 879.699 487.66C881.104 486.552 883.443 485.34 886.763 484.234C893.347 482.039 902.736 480.603 913.318 480.603C923.901 480.603 933.29 482.039 939.874 484.234C943.194 485.34 945.533 486.552 946.938 487.66C947.559 488.149 947.867 488.506 948.016 488.719C947.867 488.932 947.559 489.29 946.938 489.779C945.533 490.886 943.194 492.098 939.874 493.205C933.29 495.399 923.901 496.836 913.318 496.836C902.736 496.836 893.347 495.399 886.763 493.205C883.443 492.098 881.104 490.886 879.699 489.779C879.078 489.29 878.769 488.932 878.621 488.719ZM948.145 488.949C948.144 488.949 948.142 488.943 948.139 488.931C948.144 488.943 948.145 488.949 948.145 488.949ZM948.139 488.508C948.142 488.496 948.144 488.49 948.145 488.49C948.145 488.49 948.144 488.496 948.139 488.508ZM878.498 488.508C878.493 488.496 878.491 488.49 878.492 488.49C878.492 488.49 878.495 488.496 878.498 488.508ZM883.897 474.547C891.639 471.967 902.04 470.45 913.318 470.45C924.597 470.45 934.998 471.967 942.74 474.547C946.583 475.828 950.041 477.459 952.641 479.508C955.152 481.487 957.684 484.542 957.684 488.719C957.684 492.896 955.152 495.952 952.641 497.93C950.041 499.979 946.583 501.61 942.74 502.891C934.998 505.471 924.597 506.988 913.318 506.988C902.04 506.988 891.639 505.471 883.897 502.891C880.054 501.61 876.596 499.979 873.995 497.93C871.485 495.952 868.953 492.896 868.953 488.719C868.953 484.542 871.485 481.487 873.995 479.508C876.596 477.459 880.054 475.828 883.897 474.547Z" fill="#FF5858"/>
<path fill-rule="evenodd" clip-rule="evenodd" d="M583.704 609.231C576.428 600.436 582.313 586.643 593.344 586.643H711.648C722.678 586.643 728.558 600.437 721.289 609.23L721.288 609.231L662.137 680.738C662.137 680.739 662.136 680.739 662.136 680.739C660.932 682.195 659.45 683.361 657.787 684.16C656.124 684.96 654.32 685.373 652.494 685.373C650.669 685.373 648.864 684.96 647.201 684.16C645.539 683.361 644.056 682.195 642.853 680.739M642.852 680.738L583.705 609.231C583.705 609.231 583.705 609.231 583.704 609.231M658.505 677.359L654.884 673.986L714.035 602.479C715.838 600.297 714.375 596.88 711.648 596.88H593.344C590.612 596.88 589.153 600.298 590.956 602.477L650.105 673.986L650.106 673.987C650.404 674.348 650.771 674.637 651.183 674.835C651.595 675.033 652.042 675.135 652.494 675.135C652.947 675.135 653.394 675.033 653.805 674.835C654.217 674.637 654.585 674.348 654.883 673.987L658.505 677.359Z" fill="#FF5858"/>
<path d="M655.165 663.088L681.426 631.05C683.44 628.591 681.809 624.736 678.756 624.736H626.235C623.18 624.736 621.55 628.591 623.566 631.05L649.824 663.088C650.158 663.495 650.568 663.821 651.029 664.045C651.489 664.268 651.989 664.384 652.495 664.384C653 664.384 653.5 664.268 653.961 664.045C654.421 663.821 654.832 663.495 655.165 663.088V663.088Z" fill="#FF5858"/>
<path fill-rule="evenodd" clip-rule="evenodd" d="M620.385 634.918C615.684 629.133 619.491 620.071 626.605 620.071H678.383C685.498 620.071 689.3 629.135 684.605 634.917L658.715 666.78C658.715 666.781 658.715 666.781 658.715 666.781C657.938 667.738 656.981 668.504 655.908 669.029C654.835 669.554 653.671 669.825 652.493 669.825C651.316 669.825 650.152 669.554 649.079 669.029C648.006 668.504 647.049 667.738 646.272 666.781M646.272 666.78L620.385 634.918C620.385 634.918 620.385 634.918 620.385 634.918M655.122 663.371L652.494 660.877L652.494 660.877L651.538 659.97C651.538 659.97 651.537 659.971 651.537 659.971L652.493 660.877L652.493 660.878L652.494 660.879L655.122 663.371ZM652.494 658.794L675.569 630.394H629.42L652.494 658.794Z" fill="#FF5858"/>
<path d="M653.009 677.599H651.252C649.93 677.599 648.857 678.748 648.857 680.166V758.214C648.857 759.632 649.93 760.782 651.252 760.782H653.009C654.331 760.782 655.403 759.632 655.403 758.214V680.166C655.403 678.748 654.331 677.599 653.009 677.599Z" fill="#FF5858"/>
<path fill-rule="evenodd" clip-rule="evenodd" d="M617.67 764.509C617.669 764.509 617.671 764.503 617.676 764.491C617.672 764.503 617.67 764.509 617.67 764.509ZM617.799 764.28C617.947 764.067 618.256 763.709 618.876 763.22C620.282 762.113 622.621 760.901 625.941 759.794C632.524 757.6 641.914 756.163 652.496 756.163C663.078 756.163 672.468 757.6 679.051 759.794C682.371 760.901 684.71 762.113 686.116 763.22C686.737 763.709 687.045 764.067 687.194 764.28C687.045 764.493 686.737 764.85 686.116 765.339C684.71 766.447 682.371 767.659 679.051 768.765C672.468 770.96 663.078 772.396 652.496 772.396C641.914 772.396 632.524 770.96 625.941 768.765C622.621 767.659 620.282 766.447 618.876 765.339C618.256 764.85 617.947 764.493 617.799 764.28ZM687.323 764.509C687.322 764.509 687.32 764.503 687.317 764.491C687.321 764.503 687.323 764.509 687.323 764.509ZM687.317 764.068C687.32 764.056 687.322 764.05 687.323 764.05C687.323 764.05 687.321 764.056 687.317 764.068ZM617.676 764.068C617.671 764.056 617.669 764.05 617.67 764.05C617.67 764.05 617.672 764.056 617.676 764.068ZM623.074 750.108C630.817 747.528 641.218 746.011 652.496 746.011C663.774 746.011 674.176 747.528 681.918 750.108C685.761 751.389 689.219 753.02 691.819 755.069C694.329 757.047 696.861 760.103 696.861 764.28C696.861 768.457 694.329 771.513 691.819 773.491C689.219 775.54 685.761 777.171 681.918 778.452C674.176 781.032 663.774 782.549 652.496 782.549C641.218 782.549 630.817 781.032 623.074 778.452C619.231 777.171 615.774 775.54 613.173 773.491C610.663 771.513 608.131 768.457 608.131 764.28C608.131 760.103 610.663 757.047 613.173 755.069C615.774 753.02 619.231 751.389 623.074 750.108Z" fill="#FF5858"/>
<path fill-rule="evenodd" clip-rule="evenodd" d="M328.925 896.631C321.649 887.836 327.534 874.043 338.565 874.043H456.869C467.899 874.043 473.779 887.837 466.509 896.63L466.509 896.631L407.358 968.139C407.357 968.139 407.357 968.139 407.357 968.14C406.153 969.595 404.67 970.762 403.008 971.561C401.345 972.36 399.541 972.773 397.715 972.773C395.889 972.773 394.085 972.36 392.422 971.561C390.76 970.762 389.277 969.595 388.073 968.14M388.072 968.139L328.926 896.632C328.925 896.632 328.925 896.631 328.925 896.631M403.726 964.759L400.104 961.387L459.255 889.879C461.059 887.697 459.595 884.281 456.869 884.281H338.565C335.832 884.281 334.374 887.698 336.177 889.877L395.326 961.387L395.326 961.388C395.625 961.748 395.992 962.037 396.404 962.235C396.816 962.433 397.263 962.536 397.715 962.536C398.167 962.536 398.614 962.433 399.026 962.235C399.438 962.037 399.805 961.748 400.104 961.388L403.726 964.759Z" fill="#FF5858"/>
<path d="M400.386 950.488L426.646 918.45C428.66 915.992 427.03 912.136 423.977 912.136H371.456C368.401 912.136 366.771 915.992 368.786 918.45L395.045 950.488C395.378 950.895 395.789 951.222 396.25 951.445C396.71 951.668 397.21 951.784 397.715 951.784C398.221 951.784 398.721 951.668 399.181 951.445C399.642 951.222 400.053 950.895 400.386 950.488V950.488Z" fill="#FF5858"/>
<path fill-rule="evenodd" clip-rule="evenodd" d="M365.605 922.318C360.905 916.533 364.712 907.471 371.826 907.471H423.604C430.719 907.471 434.521 916.535 429.825 922.317L403.936 954.18C403.936 954.18 403.936 954.181 403.935 954.181C403.158 955.138 402.202 955.904 401.129 956.429C400.056 956.954 398.892 957.225 397.714 957.225C396.536 957.225 395.372 956.954 394.299 956.429C393.227 955.904 392.27 955.138 391.493 954.181M391.492 954.18L365.606 922.318C365.606 922.318 365.606 922.318 365.605 922.318M400.342 950.771L397.715 948.277L397.714 948.277L396.759 947.37C396.758 947.37 396.758 947.37 396.758 947.371L397.714 948.277L397.714 948.278L397.715 948.279L400.342 950.771ZM397.714 946.194L420.789 917.794H374.641L397.714 946.194Z" fill="#FF5858"/>
<path d="M398.229 965H396.473C395.15 965 394.078 966.149 394.078 967.567V1045.61C394.078 1047.03 395.15 1048.18 396.473 1048.18H398.229C399.552 1048.18 400.624 1047.03 400.624 1045.61V967.567C400.624 966.149 399.552 965 398.229 965Z" fill="#FF5858"/>
<path fill-rule="evenodd" clip-rule="evenodd" d="M362.89 1051.91C362.89 1051.91 362.892 1051.9 362.896 1051.89C362.893 1051.9 362.891 1051.91 362.89 1051.91ZM363.019 1051.68C363.168 1051.47 363.476 1051.11 364.097 1050.62C365.503 1049.51 367.841 1048.3 371.161 1047.19C377.745 1045 387.135 1043.56 397.717 1043.56C408.299 1043.56 417.689 1045 424.272 1047.19C427.592 1048.3 429.931 1049.51 431.337 1050.62C431.957 1051.11 432.266 1051.47 432.414 1051.68C432.266 1051.89 431.957 1052.25 431.337 1052.74C429.931 1053.85 427.592 1055.06 424.272 1056.17C417.689 1058.36 408.299 1059.8 397.717 1059.8C387.135 1059.8 377.745 1058.36 371.161 1056.17C367.841 1055.06 365.503 1053.85 364.097 1052.74C363.476 1052.25 363.168 1051.89 363.019 1051.68ZM432.543 1051.91C432.543 1051.91 432.54 1051.9 432.537 1051.89C432.542 1051.9 432.544 1051.91 432.543 1051.91ZM432.537 1051.47C432.54 1051.46 432.543 1051.45 432.543 1051.45C432.544 1051.45 432.542 1051.46 432.537 1051.47ZM362.896 1051.47C362.892 1051.46 362.89 1051.45 362.89 1051.45C362.891 1051.45 362.893 1051.46 362.896 1051.47ZM368.295 1037.51C376.037 1034.93 386.439 1033.41 397.717 1033.41C408.995 1033.41 419.396 1034.93 427.139 1037.51C430.982 1038.79 434.439 1040.42 437.04 1042.47C439.55 1044.45 442.082 1047.5 442.082 1051.68C442.082 1055.86 439.55 1058.91 437.04 1060.89C434.439 1062.94 430.982 1064.57 427.139 1065.85C419.396 1068.43 408.995 1069.95 397.717 1069.95C386.439 1069.95 376.037 1068.43 368.295 1065.85C364.452 1064.57 360.994 1062.94 358.394 1060.89C355.884 1058.91 353.352 1055.86 353.352 1051.68C353.352 1047.5 355.884 1044.45 358.394 1042.47C360.994 1040.42 364.452 1038.79 368.295 1037.51Z" fill="#FF5858"/>
<path d="M157.386 484.555C198.041 563.926 281.642 728.983 290.799 754.245L37.2172 765.367L283.098 830.569L156.066 909.603L418.848 862.399L526.4 974.705L438.148 817.3L728.32 821.835L540.171 694.633L685.168 603.694L476.116 629.29C476.544 577.218 497.698 394.314 492.527 422.943C487.21 452.372 416.192 573.082 385.895 616.639L310.008 549.867L334.072 653.124L157.386 484.555Z" fill="white" stroke="#1E2165" stroke-width="4"/>
<path d="M324.605 731.03L331.516 695.394L326.51 694.423L320.541 725.199L310.159 723.186L316.128 692.409L311.048 691.424L305.079 722.2L294.697 720.187L300.666 689.41L295.66 688.439L288.748 724.075L324.605 731.03ZM354.666 736.86L359.55 711.679C360.435 707.114 360.358 703.967 359.318 702.237C358.264 700.581 355.462 699.274 351.044 698.417C348.099 697.846 344.743 697.424 340.976 697.152L340.033 702.011C343.534 702.079 346.684 702.384 349.408 702.913C351.911 703.398 353.534 704.095 354.289 704.929C355.044 705.763 355.302 707.188 354.916 709.176L353.817 714.845L345.791 713.289C341.963 712.546 339.317 712.797 337.706 714.013C336.08 715.302 334.889 717.898 334.118 721.873C333.233 726.438 333.31 729.586 334.423 731.33C335.596 733.161 337.957 734.383 341.638 735.097C346.645 736.068 349.567 735.183 350.537 732.545L349.88 735.932L354.666 736.86ZM338.935 723.037C340.063 717.22 340.795 716.598 345.286 717.469L353.017 718.969L351.104 728.835C350.375 732.59 346.133 731.614 343.336 731.072L342.305 730.872C338.402 730.115 337.935 728.191 338.935 723.037ZM387.158 743.162L379.669 722.686L393.48 707.411L387.516 706.255L377.699 717.873L373.085 703.456L367.048 702.285L373.632 721.515L359.621 737.821L365.585 738.978L376.043 726.414L381.12 741.991L387.158 743.162ZM407.961 697.614L401.334 696.329L396.537 731.306L399.335 731.848L407.961 697.614ZM398.619 745.385L400.162 737.433L393.756 736.19L392.214 744.142L398.619 745.385ZM452.133 755.764L459.045 720.128L451.314 718.628L438.104 746.167L437.883 746.124L435.41 715.544L427.385 713.987L420.473 749.623L425.185 750.537L430.926 720.939L431.22 720.996L434.021 752.251L439.027 753.222L453.014 725.223L453.309 725.28L447.568 754.878L452.133 755.764ZM482.149 761.585L487.032 736.404C487.918 731.839 487.841 728.692 486.801 726.962C485.747 725.306 482.945 723.999 478.527 723.142C475.582 722.571 472.226 722.149 468.459 721.877L467.516 726.736C471.017 726.804 474.167 727.11 476.891 727.638C479.394 728.123 481.016 728.82 481.771 729.654C482.526 730.488 482.785 731.913 482.399 733.901L481.3 739.571L473.274 738.014C469.445 737.272 466.799 737.522 465.188 738.738C463.563 740.027 462.372 742.623 461.601 746.599C460.716 751.164 460.793 754.311 461.906 756.055C463.079 757.886 465.439 759.108 469.121 759.822C474.128 760.793 477.049 759.908 478.02 757.27L477.363 760.657L482.149 761.585ZM466.418 747.762C467.546 741.945 468.278 741.323 472.769 742.194L480.5 743.694L478.586 753.56C477.858 757.315 473.616 756.34 470.818 755.797L469.788 755.597C465.885 754.84 465.418 752.916 466.418 747.762ZM519.726 736.939L520.668 732.079L494.751 727.053L493.809 731.912L504.338 733.954L498.369 764.731L503.302 765.688L509.271 734.911L519.726 736.939ZM535.372 722.326L528.745 721.04L523.948 756.017L526.746 756.559L535.372 722.326ZM526.03 770.096L527.572 762.144L521.167 760.902L519.625 768.853L526.03 770.096Z" fill="#FF5858"/>
</svg>
