<svg width="448" height="348" viewBox="0 0 448 348" fill="none" xmlns="http://www.w3.org/2000/svg">
<rect width="448" height="348" fill="white"/>
<rect x="26" y="20" width="396" height="308" fill="#FF5858"/>
<path d="M297.458 254.5L307.077 334.567L113.709 335.117L115.292 279.347C119.51 239.513 146.146 202.617 172.271 184.271C181.854 203.485 188.686 203.5 211.5 203.5C234.314 203.5 233.94 203.485 243.522 184.271C265.055 198.861 290.993 225.426 297.458 254.5Z" fill="white"/>
<circle cx="211" cy="152" r="56" fill="white"/>
<circle cx="211" cy="80" r="36" fill="white"/>
<path d="M208 144.5C208 159.103 195.945 171 181 171C166.055 171 154 159.103 154 144.5C154 129.897 166.055 118 181 118C195.945 118 208 129.897 208 144.5Z" stroke="#1E2165" stroke-width="4"/>
<circle cx="238.5" cy="144.5" r="26.5" stroke="#1E2165" stroke-width="4"/>
<path d="M217 180.423C217 176.876 214.09 174 210.5 174C206.91 174 204 176.876 204 180.423C204 183.971 206.91 180.423 210.5 180.423C214.09 180.423 217 183.971 217 180.423Z" fill="#FF5858"/>
<path d="M217 181.577C217 185.124 214.09 188 210.5 188C206.91 188 204 185.124 204 181.577C204 178.029 206.91 181.577 210.5 181.577C214.09 181.577 217 178.029 217 181.577Z" fill="#FF5858"/>
</svg>
