<svg width="448" height="348" viewBox="0 0 448 348" fill="none" xmlns="http://www.w3.org/2000/svg">
<rect width="448" height="348" fill="white"/>
<rect x="26" y="20" width="396" height="308" fill="#FF5858"/>
<path d="M266.769 149.466C266.783 157.801 265.027 166.047 261.612 173.676C252.463 194.07 232.114 208.259 208.48 208.259C184.846 208.259 164.504 194.07 155.357 173.676C151.672 165.407 149.923 156.43 150.239 147.407C150.556 138.385 152.928 129.547 157.183 121.546C169.297 129.328 188.638 134.365 210.431 134.365C230.517 134.365 248.521 130.087 260.701 123.322C264.711 131.473 266.785 140.412 266.769 149.466Z" fill="white"/>
<path d="M297.458 254.499L307.077 334.567L113.709 335.116L115.292 279.347C119.51 239.512 146.146 202.616 172.271 184.27C181.854 203.485 185.748 206.909 208.562 206.909C231.376 206.909 233.94 203.485 243.522 184.27C265.055 198.861 290.993 225.425 297.458 254.499Z" fill="white"/>
<path d="M156.332 110.884C156.332 110.884 142.004 74.9676 165.464 55C165.464 55 158.842 91.5464 177.248 109.378L159.503 111.072" fill="#1E2165"/>
<path d="M260.059 110.884C260.059 110.884 274.386 74.9676 250.927 55C250.927 55 257.549 91.5464 239.143 109.378L256.888 111.072" fill="#1E2165"/>
<path d="M258 115.73C258 146.509 236.286 121.24 209.5 121.24C182.714 121.24 161 146.509 161 115.73C161 84.9511 182.714 60 209.5 60C236.286 60 258 84.9511 258 115.73Z" fill="#1E2165"/>
<ellipse cx="210" cy="119" rx="89" ry="17" fill="#1E2165"/>
<path d="M208 176.556L249 179L208 157V176.556Z" fill="#1E2165"/>
<path d="M207 176.556L167 179L207 157V176.556Z" fill="#1E2165"/>
</svg>
