<svg width="401" height="625" viewBox="0 0 401 625" fill="none" xmlns="http://www.w3.org/2000/svg">
<path d="M19.3706 625C-40.7185 45.7078 57.968 110.341 60.2706 106.496H114V625H19.3706Z" fill="white"/>
<path d="M231.201 338C171.639 79.0486 269.459 107.94 271.742 106.222H325V338H231.201Z" fill="white"/>
<path d="M169.799 625C229.361 45.7078 131.541 110.341 129.258 106.496H76V625H169.799Z" fill="white"/>
<path d="M381.969 338C441.004 79.0486 344.049 107.94 341.787 106.222H289V338H381.969Z" fill="white"/>
<ellipse cx="91.5" cy="78" rx="41.5" ry="42" fill="white"/>
<ellipse cx="302.5" cy="78" rx="41.5" ry="42" fill="white"/>
<circle cx="92" cy="26" r="26" fill="white"/>
<path d="M89 68.5C89 80.2964 79.0058 90 66.5 90C53.9942 90 44 80.2964 44 68.5C44 56.7036 53.9942 47 66.5 47C79.0058 47 89 56.7036 89 68.5Z" stroke="#1E2165" stroke-width="4"/>
<path d="M137 68.5C137 80.3346 127.19 90 115 90C102.81 90 93 80.3346 93 68.5C93 56.6654 102.81 47 115 47C127.19 47 137 56.6654 137 68.5Z" stroke="#1E2165" stroke-width="4"/>
<ellipse cx="75.5" cy="68" rx="2.5" ry="5" fill="#1E2165"/>
<ellipse cx="287.5" cy="68" rx="2.5" ry="5" fill="#1E2165"/>
<ellipse cx="105" cy="68" rx="3" ry="5" fill="#1E2165"/>
<ellipse cx="316.5" cy="68" rx="3.5" ry="5" fill="#1E2165"/>
<path d="M229 291.187L303 287L288.94 617H229V291.187Z" fill="white"/>
<path d="M303 291H382V617H317.716L303 291Z" fill="white"/>
<path d="M303 93.8889L337 96L303 77V93.8889Z" fill="#1E2165"/>
<path d="M303 93.8889L270 96L303 77V93.8889Z" fill="#1E2165"/>
<path d="M332 39.182C332 56.9557 319.24 42.3639 303.5 42.3639C287.76 42.3639 275 56.9557 275 39.182C275 21.4084 287.76 7 303.5 7C319.24 7 332 21.4084 332 39.182Z" fill="#FF5858"/>
<ellipse cx="303" cy="41" rx="61" ry="11" fill="#FF5858"/>
<path d="M299 622C259.223 622 278.853 622 254 622C229.147 622 239.335 622 209 622C209 597.147 229.147 577 254 577C278.853 577 299 597.147 299 622Z" fill="#1E2165"/>
<path d="M93 625C63.8304 625 78.2254 625 60 625C41.7746 625 49.2455 625 27 625C27 606.222 41.7746 591 60 591C78.2254 591 93 606.222 93 625Z" fill="#1E2165"/>
<path d="M394 622C355.549 622 374.524 622 350.5 622C326.476 622 336.324 622 307 622C307 597.147 326.476 577 350.5 577C374.524 577 394 597.147 394 622Z" fill="#1E2165"/>
<path d="M167 625C137.388 625 152.002 625 133.5 625C114.998 625 122.583 625 100 625C100 606.222 114.998 591 133.5 591C152.002 591 167 606.222 167 625Z" fill="#1E2165"/>
</svg>
