<svg width="1547" height="1563" viewBox="0 0 1547 1563" fill="none" xmlns="http://www.w3.org/2000/svg">
<rect x="56.1602" y="950.452" width="812.674" height="216.354" fill="white"/>
<rect x="56.1602" y="1215.24" width="812.674" height="216.354" fill="white"/>
<rect x="56.1602" y="685.66" width="812.674" height="216.354" fill="white"/>
<path d="M412.406 696.423H425.673C426.39 696.423 427.078 696.717 427.585 697.239C428.092 697.762 428.376 698.47 428.376 699.209V746.565C428.376 747.267 428.554 747.958 428.893 748.567C429.233 749.176 429.721 749.683 430.309 750.037L430.446 750.116C433.829 752.194 436.628 755.144 438.567 758.677C440.507 762.209 441.52 766.201 441.507 770.259V881.17C441.507 882.702 440.917 884.17 439.866 885.253C438.815 886.336 437.39 886.944 435.905 886.944H401.902C400.416 886.944 398.991 886.336 397.94 885.253C396.89 884.17 396.299 882.702 396.299 881.17V770.259C396.276 766.47 397.067 762.722 398.617 759.286C400.218 755.803 402.861 752.068 407.178 750.185C407.931 749.851 408.573 749.298 409.023 748.592C409.473 747.886 409.712 747.06 409.71 746.215L409.78 699.144C409.78 698.425 410.056 697.735 410.548 697.225C411.04 696.716 411.708 696.427 412.406 696.423V696.423Z" fill="#1E2165"/>
<path d="M759.002 970.903H772.269C772.986 970.903 773.673 971.196 774.18 971.719C774.687 972.241 774.972 972.95 774.972 973.689V1021.04C774.972 1021.75 775.15 1022.44 775.489 1023.05C775.828 1023.66 776.316 1024.16 776.905 1024.52L777.042 1024.6C780.424 1026.67 783.224 1029.62 785.163 1033.16C787.103 1036.69 788.116 1040.68 788.103 1044.74V1155.65C788.103 1157.18 787.512 1158.65 786.462 1159.73C785.411 1160.82 783.986 1161.42 782.5 1161.42H748.497C747.012 1161.42 745.587 1160.82 744.536 1159.73C743.485 1158.65 742.895 1157.18 742.895 1155.65V1044.74C742.871 1040.95 743.663 1037.2 745.213 1033.77C746.813 1030.28 749.457 1026.55 753.774 1024.66C754.527 1024.33 755.169 1023.78 755.619 1023.07C756.069 1022.37 756.308 1021.54 756.306 1020.69L756.376 973.624C756.376 972.905 756.652 972.215 757.144 971.705C757.636 971.195 758.304 970.907 759.002 970.903V970.903Z" fill="#1E2165"/>
<path d="M338.135 1230.31H351.402C352.119 1230.31 352.806 1230.61 353.313 1231.13C353.82 1231.65 354.105 1232.36 354.105 1233.1V1280.45C354.105 1281.16 354.283 1281.85 354.622 1282.46C354.961 1283.06 355.449 1283.57 356.038 1283.93L356.174 1284.01C359.557 1286.08 362.356 1289.03 364.296 1292.57C366.236 1296.1 367.249 1300.09 367.236 1304.15V1415.06C367.236 1416.59 366.645 1418.06 365.595 1419.14C364.544 1420.23 363.119 1420.83 361.633 1420.83H327.63C326.144 1420.83 324.719 1420.23 323.669 1419.14C322.618 1418.06 322.028 1416.59 322.028 1415.06V1304.15C322.004 1300.36 322.796 1296.61 324.346 1293.17C325.946 1289.69 328.59 1285.96 332.907 1284.07C333.66 1283.74 334.301 1283.19 334.751 1282.48C335.202 1281.78 335.44 1280.95 335.439 1280.1L335.509 1233.03C335.509 1232.31 335.785 1231.62 336.277 1231.11C336.769 1230.6 337.437 1230.32 338.135 1230.31V1230.31Z" fill="#1E2165"/>
<path d="M474.836 696.423H488.103C488.82 696.423 489.507 696.717 490.014 697.239C490.521 697.762 490.806 698.47 490.806 699.209V746.565C490.806 747.267 490.984 747.958 491.323 748.567C491.662 749.176 492.15 749.683 492.739 750.037L492.876 750.116C496.258 752.194 499.058 755.144 500.997 758.677C502.937 762.209 503.95 766.201 503.937 770.259V881.17C503.937 882.702 503.346 884.17 502.296 885.253C501.245 886.336 499.82 886.944 498.334 886.944H464.331C462.846 886.944 461.421 886.336 460.37 885.253C459.319 884.17 458.729 882.702 458.729 881.17V770.259C458.705 766.47 459.497 762.722 461.047 759.286C462.647 755.803 465.291 752.068 469.608 750.185C470.361 749.851 471.003 749.298 471.453 748.592C471.903 747.886 472.142 747.06 472.14 746.215L472.21 699.144C472.21 698.425 472.486 697.735 472.978 697.225C473.47 696.716 474.138 696.427 474.836 696.423V696.423Z" fill="#1E2165"/>
<path d="M431.742 1420.83H396.371C394.237 1420.83 393.591 1418.29 395.551 1417.54C399.373 1416.06 405.628 1415.69 409.103 1415.59C409.79 1415.57 410.442 1415.33 410.922 1414.9C411.402 1414.47 411.672 1413.9 411.674 1413.3L411.82 1390.01C411.83 1389.25 411.568 1388.5 411.07 1387.86C410.573 1387.23 409.864 1386.75 409.04 1386.48C382.659 1378.02 388.538 1355.6 391.391 1348.03C391.67 1347.29 392.212 1346.64 392.937 1346.19C393.663 1345.73 394.537 1345.48 395.432 1345.49H433.132C433.893 1345.48 434.635 1345.69 435.253 1346.08C435.872 1346.46 436.335 1347.01 436.579 1347.63C439.359 1354.8 445.94 1377.9 419.024 1386.5C418.223 1386.75 417.53 1387.21 417.041 1387.81C416.553 1388.42 416.291 1389.14 416.292 1389.88L416.438 1413.3C416.441 1413.9 416.71 1414.47 417.19 1414.9C417.67 1415.33 418.323 1415.57 419.01 1415.59C422.485 1415.69 428.74 1416.06 432.562 1417.54C434.522 1418.3 433.886 1420.83 431.742 1420.83Z" fill="#1E2165"/>
<path d="M559.832 884.792H524.46C522.327 884.792 521.681 882.249 523.64 881.497C527.463 880.023 533.718 879.645 537.193 879.551C537.88 879.534 538.532 879.285 539.012 878.857C539.492 878.43 539.762 877.856 539.764 877.259L539.91 853.971C539.919 853.205 539.658 852.456 539.16 851.824C538.663 851.192 537.954 850.709 537.13 850.44C510.748 841.982 516.628 819.558 519.481 811.985C519.76 811.245 520.301 810.601 521.027 810.145C521.753 809.689 522.626 809.444 523.522 809.445H561.222C561.983 809.444 562.725 809.651 563.343 810.036C563.961 810.422 564.425 810.966 564.669 811.592C567.449 818.757 574.03 841.858 547.114 850.458C546.313 850.708 545.62 851.167 545.131 851.773C544.642 852.379 544.381 853.101 544.382 853.841L544.528 877.259C544.531 877.856 544.8 878.43 545.28 878.857C545.76 879.285 546.412 879.534 547.1 879.551C550.575 879.645 556.829 880.023 560.652 881.497C562.612 882.261 561.976 884.792 559.832 884.792Z" fill="#424B7C"/>
<path d="M310.668 721.364V693.195H283.816H256.965V721.364L240.223 757.778V886.945H283.816H327.41V757.778L310.668 721.364Z" fill="#5886FF"/>
<path d="M162.867 1079.53V1066.7H140.657H118.446V1079.53L104.598 1096.12V1154.97H140.657H176.716V1096.12L162.867 1079.53Z" fill="#1E2165"/>
<path d="M270.506 1079.53V1066.7H248.295H226.085V1079.53L212.236 1096.12V1154.97H248.295H284.354V1096.12L270.506 1079.53Z" fill="#1E2165"/>
<path d="M282.345 1345.4V1332.57H260.135H237.925V1345.4L224.076 1361.99V1420.83H260.135H296.194V1361.99L282.345 1345.4Z" fill="#1E2165"/>
<path d="M533.144 997.194V970.903H510.934H488.724V997.194L474.875 1031.18V1151.74H510.934H546.993V1031.18L533.144 997.194Z" fill="#1E2165"/>
<path d="M619.256 998.27V971.979H597.045H574.835V998.27L560.986 1032.26V1152.81H597.045H633.104V1032.26L619.256 998.27Z" fill="#1E2165"/>
<path d="M954.404 780.443L585.186 534.44L761.116 524.757L636.509 417.052L729.706 211.891L531.559 383.814L395.667 100L322.127 397.279L139.67 269.891L194.869 424.935L65.2841 385.08L207.585 569.76L29.1191 597.997L282.96 672.363C295.779 762.389 322.217 944.69 325.42 953.687C328.623 962.685 408.126 773.08 447.476 677.153L584.59 962.795L504.013 593.663L954.404 780.443Z" fill="white" stroke="#1E2165" stroke-width="1.07639"/>
<path d="M245.492 609.254L239.043 614.913C237.929 613.615 236.717 612.862 235.406 612.654C234.113 612.436 232.779 612.741 231.403 613.569C229.575 614.669 228.494 616.185 228.162 618.116C227.837 620.019 228.565 622.451 230.346 625.411C232.326 628.703 234.274 630.697 236.188 631.395C238.12 632.083 240.017 631.866 241.88 630.745C243.273 629.907 244.178 628.829 244.595 627.511C245.001 626.176 244.805 624.431 244.008 622.279L251.956 619.168C253.198 622.928 253.265 626.291 252.156 629.258C251.048 632.225 248.709 634.783 245.14 636.931C241.082 639.372 237.073 640.041 233.113 638.938C229.17 637.824 225.836 635.003 223.112 630.476C220.356 625.896 219.424 621.607 220.314 617.608C221.195 613.592 223.698 610.342 227.825 607.859C231.203 605.827 234.325 604.944 237.19 605.213C240.062 605.453 242.83 606.8 245.492 609.254ZM245.859 597.862L253.173 593.461L259.994 604.797C261.129 603.925 261.766 603.032 261.904 602.118C262.042 601.205 261.85 599.506 261.328 597.022C260.623 593.722 260.598 591.354 261.251 589.917C261.904 588.48 263.137 587.217 264.948 586.128C265.505 585.792 266.497 585.254 267.925 584.514L270.875 589.356C268.942 590.519 267.816 591.446 267.496 592.136C267.187 592.844 267.289 594.336 267.805 596.611C268.492 599.684 268.212 601.999 266.966 603.555C269.67 602.806 272.839 603.638 276.474 606.052C276.666 606.174 276.871 606.299 277.091 606.428L285.797 611.614L277.909 616.36L269.427 610.542C267.704 609.373 266.427 608.729 265.598 608.612C264.775 608.467 263.824 608.719 262.744 609.368L269.864 621.201L262.55 625.601L245.859 597.862ZM272.763 581.674L279.815 577.431L290.298 594.853L291.099 570.641L298.308 566.304L314.999 594.043L307.947 598.286L297.275 580.551L296.506 605.17L289.454 609.413L272.763 581.674ZM345.481 575.702L324.481 588.338L328.881 595.651L322.926 599.235L314.91 585.914L317.914 584.106C318.33 581.959 318.056 579.159 317.093 575.706C316.131 572.253 313.569 566.893 309.409 559.624L331.794 546.155L344.87 567.887L347.848 566.095L355.863 579.416L349.882 583.016L345.481 575.702ZM337.609 572.256L328.189 556.542L319.309 561.886C323.623 569.726 325.552 575.692 325.097 579.784L337.609 572.256ZM339.526 541.503L346.839 537.103L353.66 548.439C354.795 547.566 355.432 546.673 355.57 545.76C355.708 544.846 355.516 543.147 354.994 540.663C354.289 537.363 354.264 534.995 354.917 533.558C355.571 532.122 356.803 530.858 358.614 529.769C359.171 529.434 360.164 528.896 361.592 528.155L364.541 532.997C362.608 534.16 361.482 535.087 361.162 535.778C360.853 536.486 360.956 537.977 361.471 540.252C362.158 543.326 361.878 545.64 360.633 547.196C363.336 546.447 366.505 547.279 370.14 549.694C370.332 549.815 370.538 549.941 370.757 550.069L379.463 555.255L371.575 560.001L363.093 554.183C361.37 553.014 360.094 552.371 359.264 552.253C358.441 552.108 357.49 552.36 356.41 553.01L363.53 564.842L356.216 569.243L339.526 541.503ZM366.429 525.315L373.481 521.072L383.964 538.494L384.765 514.282L391.974 509.945L408.665 537.684L401.613 541.928L390.941 524.192L390.172 548.811L383.12 553.055L366.429 525.315ZM454.035 510.385L433.035 523.021L437.436 530.334L431.48 533.918L423.465 520.597L426.469 518.789C426.884 516.642 426.611 513.842 425.648 510.389C424.685 506.936 422.124 501.576 417.964 494.307L440.349 480.838L453.425 502.57L456.402 500.778L464.418 514.099L458.436 517.698L454.035 510.385ZM446.163 506.939L436.744 491.225L427.863 496.569C432.177 504.409 434.107 510.375 433.652 514.467L446.163 506.939ZM454.779 490.513C453.312 488.075 452.493 485.354 452.322 482.35C452.151 479.346 452.801 476.583 454.272 474.061C455.761 471.529 457.863 469.446 460.58 467.811C464.777 465.286 469.038 464.584 473.365 465.704C477.681 466.807 481.091 469.439 483.595 473.601C486.12 477.798 486.858 482.097 485.807 486.501C484.763 490.876 482.187 494.3 478.077 496.773C475.535 498.302 472.76 499.189 469.753 499.434C466.763 499.667 464.001 499.04 461.469 497.552C458.927 496.046 456.697 493.699 454.779 490.513ZM462.537 486.378C464.193 489.129 466.114 490.844 468.3 491.52C470.486 492.197 472.537 491.96 474.452 490.807C476.368 489.654 477.53 487.959 477.938 485.721C478.364 483.473 477.739 480.955 476.062 478.169C474.428 475.453 472.517 473.756 470.331 473.079C468.163 472.392 466.121 472.624 464.205 473.777C462.29 474.929 461.119 476.63 460.693 478.878C460.267 481.127 460.882 483.627 462.537 486.378ZM505.91 467.111L512.543 462.053C513.587 463.394 514.684 464.192 515.835 464.449C516.985 464.705 518.161 464.472 519.363 463.749C520.878 462.837 521.747 461.365 521.971 459.333C522.195 457.301 521.135 454.002 518.791 449.435C518.234 452.688 516.571 455.147 513.802 456.813C510.79 458.626 507.489 459.034 503.902 458.038C500.321 457.015 497.41 454.64 495.168 450.913C492.831 447.03 492.1 443.213 492.973 439.461C493.854 435.682 496.079 432.719 499.649 430.571C503.532 428.234 507.625 427.823 511.928 429.338C516.22 430.834 520.435 435.022 524.574 441.9C528.786 448.9 530.527 454.731 529.797 459.391C529.068 464.052 526.622 467.635 522.46 470.139C519.465 471.941 516.568 472.605 513.769 472.131C510.959 471.639 508.34 469.966 505.91 467.111ZM512.873 441.078C511.448 438.71 509.794 437.203 507.911 436.557C506.046 435.901 504.399 436.002 502.971 436.861C501.613 437.678 500.806 438.899 500.55 440.524C500.301 442.12 500.91 444.138 502.377 446.575C503.865 449.048 505.447 450.574 507.124 451.154C508.791 451.717 510.356 451.558 511.818 450.678C513.229 449.829 514.078 448.56 514.365 446.869C514.669 445.168 514.172 443.237 512.873 441.078ZM535.687 449.195L542.32 444.136C543.364 445.477 544.461 446.275 545.612 446.532C546.762 446.788 547.938 446.555 549.139 445.832C550.654 444.921 551.524 443.449 551.748 441.417C551.972 439.384 550.912 436.085 548.567 431.519C548.01 434.771 546.347 437.231 543.579 438.896C540.566 440.709 537.266 441.117 533.679 440.122C530.098 439.098 527.187 436.723 524.944 432.996C522.608 429.113 521.876 425.296 522.75 421.545C523.631 417.766 525.856 414.802 529.425 412.654C533.309 410.318 537.402 409.907 541.704 411.421C545.997 412.918 550.212 417.105 554.351 423.983C558.563 430.984 560.304 436.814 559.574 441.475C558.845 446.135 556.399 449.718 552.237 452.222C549.242 454.024 546.345 454.688 543.546 454.214C540.736 453.723 538.116 452.05 535.687 449.195ZM542.649 423.162C541.225 420.793 539.571 419.286 537.688 418.64C535.822 417.984 534.176 418.085 532.748 418.945C531.39 419.762 530.582 420.983 530.327 422.607C530.078 424.204 530.687 426.221 532.153 428.659C533.641 431.131 535.224 432.658 536.901 433.238C538.568 433.8 540.132 433.641 541.595 432.761C543.005 431.913 543.854 430.643 544.141 428.952C544.446 427.251 543.949 425.321 542.649 423.162ZM553.336 411.359C551.272 407.929 550.491 404.936 550.993 402.381C551.513 399.815 553.061 397.757 555.639 396.206C558.303 394.603 560.881 394.178 563.374 394.931C565.874 395.656 568.161 397.743 570.236 401.191C572.3 404.621 573.072 407.619 572.553 410.185C572.05 412.741 570.511 414.794 567.934 416.344C565.269 417.947 562.687 418.386 560.187 417.661C557.695 416.908 555.411 414.807 553.336 411.359ZM559.025 407.865C560.523 410.355 561.817 411.854 562.905 412.362C563.717 412.727 564.506 412.679 565.273 412.217C566.056 411.746 566.477 411.066 566.535 410.177C566.579 408.988 565.852 407.149 564.354 404.659C562.855 402.169 561.576 400.674 560.516 400.173C559.693 399.791 558.89 399.835 558.106 400.307C557.34 400.768 556.928 401.443 556.87 402.332C556.808 403.531 557.527 405.375 559.025 407.865ZM585.541 433.25L580.108 436.519L576.195 383.837L581.471 380.663L585.541 433.25ZM591.349 416.059C589.285 412.628 588.504 409.636 589.006 407.08C589.526 404.514 591.092 402.446 593.704 400.874C596.333 399.292 598.894 398.877 601.387 399.631C603.897 400.373 606.185 402.46 608.249 405.89C610.323 409.338 611.101 412.345 610.581 414.911C610.079 417.466 608.539 419.519 605.962 421.07C603.298 422.673 600.711 423.103 598.2 422.36C595.707 421.607 593.424 419.507 591.349 416.059ZM597.054 412.591C598.552 415.081 599.84 416.571 600.917 417.061C601.74 417.443 602.535 417.404 603.301 416.943C604.085 416.472 604.497 415.797 604.538 414.918C604.599 413.719 603.88 411.875 602.382 409.385C600.884 406.895 599.599 405.391 598.529 404.873C597.716 404.508 596.918 404.561 596.135 405.032C595.351 405.504 594.939 406.179 594.898 407.057C594.837 408.256 595.555 410.101 597.054 412.591ZM616.725 399.047L603.125 380.761L597.719 371.776L605.659 366.998L611.066 375.983L620.878 396.548L616.725 399.047ZM621.072 409.879L616.656 402.539L623.996 398.123L628.412 405.463L621.072 409.879Z" fill="#FF5858"/>
<rect x="1089.22" y="1389.89" width="11.3021" height="159.844" transform="rotate(90 1089.22 1389.89)" fill="#5886FF" stroke="#5886FF" stroke-width="11.3021"/>
<rect x="1458.43" y="1130.48" width="11.3021" height="159.844" transform="rotate(90 1458.43 1130.48)" fill="#5886FF" stroke="#5886FF" stroke-width="11.3021"/>
<rect x="1089.22" y="1471.69" width="11.3021" height="160.92" transform="rotate(90 1089.22 1471.69)" fill="#5886FF" stroke="#5886FF" stroke-width="11.3021"/>
<rect x="1458.43" y="1212.28" width="11.3021" height="160.92" transform="rotate(90 1458.43 1212.28)" fill="#5886FF" stroke="#5886FF" stroke-width="11.3021"/>
<rect x="901.125" y="1286.28" width="217.431" height="30.1389" fill="#5886FF" stroke="#5886FF" stroke-width="17.2222"/>
<rect x="1270.33" y="1026.88" width="217.431" height="30.1389" fill="#5886FF" stroke="#5886FF" stroke-width="17.2222"/>
<rect x="928.572" y="1330.95" width="19.375" height="226.042" fill="#5886FF" stroke="#5886FF" stroke-width="11.8403"/>
<rect x="1297.77" y="1071.55" width="19.375" height="226.042" fill="#5886FF" stroke="#5886FF" stroke-width="11.8403"/>
<rect x="1069.58" y="1330.95" width="19.375" height="226.042" fill="#5886FF" stroke="#5886FF" stroke-width="11.8403"/>
<rect x="1438.78" y="1071.55" width="19.375" height="226.042" fill="#5886FF" stroke="#5886FF" stroke-width="11.8403"/>
<circle r="10.2257" transform="matrix(-1 0 0 1 1536.73 619.462)" fill="white"/>
<circle r="10.2257" transform="matrix(-1 0 0 1 1478.61 648.524)" fill="white"/>
<circle r="10.2257" transform="matrix(-1 0 0 1 1400.03 675.434)" fill="white"/>
<circle r="10.2257" transform="matrix(-1 0 0 1 1316.07 675.434)" fill="white"/>
<circle r="10.2257" transform="matrix(-1 0 0 1 1247.18 654.983)" fill="white"/>
<circle r="10.2257" transform="matrix(-1 0 0 1 1198.75 624.844)" fill="white"/>
<circle r="10.2257" transform="matrix(-1 0 0 1 1153.54 591.476)" fill="white"/>
<circle r="10.2257" transform="matrix(-1 0 0 1 1118.02 553.802)" fill="white"/>
<circle r="10.2257" transform="matrix(-1 0 0 1 1084.65 527.969)" fill="white"/>
<circle r="10.2257" transform="matrix(-1 0 0 1 1032.98 549.497)" fill="white"/>
<circle r="10.2257" transform="matrix(-1 0 0 1 979.163 577.483)" fill="white"/>
<circle r="10.2257" transform="matrix(-1 0 0 1 902.739 608.698)" fill="white"/>
<circle r="10.2257" transform="matrix(-1 0 0 1 841.386 628.073)" fill="white"/>
<circle r="10.2257" transform="matrix(-1 0 0 1 783.261 634.531)" fill="white"/>
<circle r="10.2257" transform="matrix(-1 0 0 1 725.136 630.226)" fill="white"/>
<circle r="10.2257" transform="matrix(-1 0 0 1 668.087 617.309)" fill="white"/>
<circle r="10.2257" transform="matrix(-1 0 0 1 630.413 587.171)" fill="white"/>
<circle r="10.2257" transform="matrix(-1 0 0 1 601.35 538.733)" fill="white"/>
<circle r="10.2257" transform="matrix(-1 0 0 1 576.593 559.184)" fill="white"/>
<circle r="10.2257" transform="matrix(-1 0 0 1 547.53 602.24)" fill="white"/>
<circle r="10.2257" transform="matrix(-1 0 0 1 516.315 636.684)" fill="white"/>
<circle r="10.2257" transform="matrix(-1 0 0 1 480.794 675.434)" fill="white"/>
<path d="M179.293 756.287V734.333H152.5H125.707V756.287L109 784.667V885.333H152.5H196V784.667L179.293 756.287Z" fill="#1E2165"/>
<path d="M179.293 1254.39V1226.33H152.5H125.707V1254.39L109 1290.67V1419.33H152.5H196V1290.67L179.293 1254.39Z" fill="#5886FF"/>
<path d="M763.996 811.128V798.333H725.5H687.004V811.128L663 827.667V886.333H725.5H788V827.667L763.996 811.128Z" fill="#5886FF"/>
<path d="M796.872 1265.89V1239.72H762.688H728.503V1265.89L707.188 1299.72V1419.72H762.688H818.188V1299.72L796.872 1265.89Z" fill="#5886FF"/>
<path d="M654.788 1265.89V1239.72H620.604H586.419V1265.89L565.104 1299.72V1419.72H620.604H676.104V1299.72L654.788 1265.89Z" fill="#1E2165"/>
</svg>
