<svg width="126" height="161" viewBox="0 0 126 161" fill="none" xmlns="http://www.w3.org/2000/svg">
<path fill-rule="evenodd" clip-rule="evenodd" d="M2.81017 18.4874C-3.55548 11.2892 1.59323 0 11.2436 0H114.741C124.39 0 129.535 11.2902 123.175 18.4867L123.174 18.4875L71.4264 77.0135C71.4261 77.0138 71.4259 77.014 71.4256 77.0143C70.3726 78.2056 69.0756 79.1602 67.6212 79.8142C66.1664 80.4684 64.5877 80.8068 62.9907 80.8068C61.3936 80.8068 59.8149 80.4684 58.3602 79.8142C56.9057 79.1602 55.6086 78.2056 54.5556 77.0142M54.555 77.0135L2.81066 18.488C2.8105 18.4878 2.81033 18.4876 2.81017 18.4874M68.2495 74.2474L65.081 71.4871L116.829 12.9612C118.407 11.1756 117.126 8.37918 114.741 8.37918H11.2436C8.85304 8.37918 7.57674 11.176 9.15448 12.9599L60.9004 71.4872L60.901 71.488C61.1619 71.7832 61.4833 72.0197 61.8436 72.1818C62.204 72.3438 62.5951 72.4276 62.9907 72.4276C63.3863 72.4276 63.7773 72.3438 64.1377 72.1818C64.498 72.0197 64.8194 71.7832 65.0803 71.488L68.2495 74.2474Z" fill="#FCFF58"/>
<path d="M65.3276 62.567L88.3012 36.345C90.0631 34.3329 88.6369 31.1772 85.9656 31.1772H40.0184C37.3456 31.1772 35.9194 34.3329 37.6828 36.345L60.6549 62.567C60.9466 62.9001 61.3059 63.167 61.7088 63.3498C62.1117 63.5326 62.5489 63.6272 62.9913 63.6272C63.4336 63.6272 63.8708 63.5326 64.2737 63.3498C64.6766 63.167 65.0359 62.9001 65.3276 62.567V62.567Z" fill="#FCFF58"/>
<path fill-rule="evenodd" clip-rule="evenodd" d="M34.9005 39.5111C30.7885 34.7769 34.1188 27.3599 40.3424 27.3599H85.6404C91.8647 27.3599 95.1908 34.7779 91.0829 39.5103L68.4339 65.5892C68.4337 65.5894 68.4335 65.5897 68.4332 65.59C67.7536 66.3728 66.9165 66.9998 65.9782 67.4294C65.0395 67.8592 64.021 68.0814 62.9907 68.0814C61.9604 68.0814 60.9419 67.8592 60.0032 67.4294C59.0648 66.9998 58.2278 66.3727 57.5481 65.5899M57.5474 65.5892L34.901 39.5116C34.9008 39.5114 34.9007 39.5112 34.9005 39.5111M65.29 62.799L62.9913 60.7579L62.9908 60.7575L62.1548 60.0152C62.1546 60.0155 62.1543 60.0157 62.1541 60.016L62.9902 60.758L62.9907 60.7585L62.9914 60.7591L65.29 62.799ZM62.9907 59.0527L83.1778 35.8085H42.8049L62.9907 59.0527Z" fill="#FCFF58"/>
<path d="M63.4421 74.4438H61.9054C60.7485 74.4438 59.8105 75.3845 59.8105 76.5449V140.424C59.8105 141.584 60.7485 142.525 61.9054 142.525H63.4421C64.5991 142.525 65.537 141.584 65.537 140.424V76.5449C65.537 75.3845 64.5991 74.4438 63.4421 74.4438Z" fill="#FCFF58"/>
<path fill-rule="evenodd" clip-rule="evenodd" d="M32.5227 145.576C32.5223 145.576 32.5238 145.571 32.528 145.561C32.5252 145.571 32.523 145.576 32.5227 145.576ZM32.6355 145.388C32.7655 145.214 33.0354 144.922 33.5784 144.521C34.808 143.615 36.8542 142.623 39.7586 141.717C45.5182 139.921 53.7327 138.746 62.9904 138.746C72.2482 138.746 80.4627 139.921 86.2222 141.717C89.1267 142.623 91.1729 143.615 92.4024 144.521C92.9455 144.922 93.2154 145.214 93.3454 145.388C93.2154 145.563 92.9455 145.855 92.4024 146.256C91.1729 147.162 89.1267 148.154 86.2222 149.06C80.4627 150.856 72.2482 152.031 62.9904 152.031C53.7327 152.031 45.5182 150.856 39.7586 149.06C36.8542 148.154 34.808 147.162 33.5784 146.256C33.0354 145.855 32.7655 145.563 32.6355 145.388ZM93.4582 145.576C93.4579 145.576 93.4557 145.572 93.4529 145.561C93.4571 145.571 93.4586 145.576 93.4582 145.576ZM93.4529 145.215C93.4557 145.205 93.4579 145.201 93.4582 145.201C93.4586 145.201 93.4571 145.206 93.4529 145.215ZM32.528 145.215C32.5238 145.206 32.5223 145.201 32.5227 145.201C32.523 145.201 32.5252 145.205 32.528 145.215ZM37.2509 133.789C44.0242 131.677 53.1237 130.436 62.9904 130.436C72.8572 130.436 81.9567 131.677 88.73 133.789C92.092 134.838 95.117 136.173 97.3919 137.85C99.588 139.469 101.803 141.97 101.803 145.388C101.803 148.807 99.588 151.308 97.3919 152.927C95.117 154.604 92.092 155.939 88.73 156.987C81.9567 159.099 72.8572 160.341 62.9904 160.341C53.1237 160.341 44.0242 159.099 37.2509 156.987C33.8889 155.939 30.8639 154.604 28.5889 152.927C26.3929 151.308 24.1777 148.807 24.1777 145.388C24.1777 141.97 26.3929 139.469 28.5889 137.85C30.8639 136.173 33.8889 134.838 37.2509 133.789Z" fill="#FCFF58"/>
</svg>
