<svg width="127" height="161" viewBox="0 0 127 161" fill="none" xmlns="http://www.w3.org/2000/svg">
<path fill-rule="evenodd" clip-rule="evenodd" d="M3.30236 18.5763C-3.06329 11.3781 2.08542 0.0888672 11.7358 0.0888672H115.233C124.883 0.0888672 130.027 11.3791 123.667 18.5755L123.667 18.5764L71.9186 77.1024C71.9183 77.1026 71.9181 77.1029 71.9178 77.1032C70.8648 78.2945 69.5678 79.2491 68.1133 79.9031C66.6586 80.5573 65.0799 80.8957 63.4828 80.8957C61.8858 80.8957 60.3071 80.5573 58.8524 79.9031C57.3979 79.2491 56.1008 78.2945 55.0478 77.1031M55.0471 77.1024L3.30285 18.5768C3.30269 18.5766 3.30252 18.5765 3.30236 18.5763M68.7417 74.3363L65.5732 71.576L117.321 13.05C118.899 11.2645 117.618 8.46805 115.233 8.46805H11.7358C9.34523 8.46805 8.06893 11.2649 9.64666 13.0487L61.3926 71.5761L61.3932 71.5768C61.6541 71.872 61.9755 72.1086 62.3358 72.2706C62.6962 72.4327 63.0872 72.5165 63.4828 72.5165C63.8785 72.5165 64.2695 72.4327 64.6299 72.2706C64.9902 72.1086 65.3116 71.8721 65.5725 71.5768L68.7417 74.3363Z" fill="#FF5858"/>
<path d="M65.8198 62.6558L88.7934 36.4339C90.5553 34.4218 89.1291 31.2661 86.4578 31.2661H40.5106C37.8378 31.2661 36.4116 34.4218 38.175 36.4339L61.1471 62.6558C61.4388 62.9889 61.7981 63.2558 62.201 63.4387C62.6039 63.6215 63.0411 63.7161 63.4835 63.7161C63.9258 63.7161 64.363 63.6215 64.7659 63.4387C65.1688 63.2558 65.5281 62.9889 65.8198 62.6558Z" fill="#FF5858"/>
<path fill-rule="evenodd" clip-rule="evenodd" d="M35.3927 39.5999C31.2807 34.8657 34.611 27.4487 40.8346 27.4487H86.1326C92.3569 27.4487 95.683 34.8668 91.5751 39.5992L68.9261 65.678C68.9259 65.6783 68.9257 65.6786 68.9254 65.6789C68.2457 66.4616 67.4087 67.0887 66.4704 67.5183C65.5317 67.948 64.5132 68.1703 63.4829 68.1703C62.4526 68.1703 61.434 67.948 60.4954 67.5183C59.557 67.0887 58.72 66.4616 58.0403 65.6788M58.0396 65.678L35.3932 39.6005C35.393 39.6003 35.3929 39.6001 35.3927 39.5999M65.7822 62.8879L63.4835 60.8468L63.483 60.8463L62.647 60.1041C62.6467 60.1043 62.6465 60.1046 62.6463 60.1049L63.4823 60.8469L63.4829 60.8473L63.4835 60.8479L65.7822 62.8879ZM63.4829 59.1416L83.67 35.8974H43.2971L63.4829 59.1416Z" fill="#FF5858"/>
<path d="M63.9343 74.5327H62.3976C61.2406 74.5327 60.3027 75.4734 60.3027 76.6338V140.513C60.3027 141.673 61.2406 142.614 62.3976 142.614H63.9343C65.0913 142.614 66.0292 141.673 66.0292 140.513V76.6338C66.0292 75.4734 65.0913 74.5327 63.9343 74.5327Z" fill="#FF5858"/>
<path fill-rule="evenodd" clip-rule="evenodd" d="M33.0149 145.665C33.0145 145.665 33.016 145.66 33.0202 145.65C33.0173 145.66 33.0152 145.665 33.0149 145.665ZM33.1277 145.477C33.2577 145.303 33.5276 145.01 34.0706 144.61C35.3002 143.704 37.3463 142.712 40.2508 141.806C46.0104 140.01 54.2249 138.834 63.4826 138.834C72.7404 138.834 80.9549 140.01 86.7144 141.806C89.6189 142.712 91.6651 143.704 92.8946 144.61C93.4377 145.01 93.7076 145.303 93.8376 145.477C93.7076 145.652 93.4377 145.944 92.8946 146.345C91.6651 147.251 89.6189 148.243 86.7144 149.149C80.9549 150.944 72.7404 152.12 63.4826 152.12C54.2249 152.12 46.0104 150.944 40.2508 149.149C37.3463 148.243 35.3002 147.251 34.0706 146.345C33.5276 145.944 33.2577 145.652 33.1277 145.477ZM93.9504 145.665C93.9501 145.665 93.9479 145.66 93.9451 145.65C93.9493 145.66 93.9507 145.665 93.9504 145.665ZM93.9451 145.304C93.9479 145.294 93.9501 145.289 93.9504 145.289C93.9507 145.289 93.9493 145.294 93.9451 145.304ZM33.0202 145.304C33.016 145.294 33.0145 145.289 33.0149 145.289C33.0152 145.289 33.0173 145.294 33.0202 145.304ZM37.7431 133.878C44.5164 131.766 53.6159 130.525 63.4826 130.525C73.3494 130.525 82.4489 131.766 89.2222 133.878C92.5842 134.927 95.6092 136.262 97.8841 137.939C100.08 139.558 102.295 142.059 102.295 145.477C102.295 148.896 100.08 151.397 97.8841 153.016C95.6092 154.693 92.5842 156.028 89.2222 157.076C82.4489 159.188 73.3494 160.43 63.4826 160.43C53.6159 160.43 44.5164 159.188 37.7431 157.076C34.3811 156.028 31.3561 154.693 29.0811 153.016C26.885 151.397 24.6699 148.896 24.6699 145.477C24.6699 142.059 26.885 139.558 29.0811 137.939C31.3561 136.262 34.3811 134.927 37.7431 133.878Z" fill="#FF5858"/>
</svg>
