<svg width="183" height="194" viewBox="0 0 183 194" fill="none" xmlns="http://www.w3.org/2000/svg">
<path d="M13.9897 12.9175H171.646C188.503 80.4679 182.846 149.132 171.646 175.265C160.447 201.397 28.2047 198.391 13.9897 175.265C-0.225243 152.138 -8.6333 79.0121 13.9897 12.9175Z" fill="#E8EEFE"/>
<path d="M172.203 16.1461C172.203 25.0634 136.811 32.2922 93.1515 32.2922C49.4923 32.2922 14.0996 25.0634 14.0996 16.1461C14.0996 7.22886 49.4923 0 93.1515 0C136.811 0 172.203 7.22886 172.203 16.1461Z" fill="white"/>
<path d="M169.179 175.455C169.179 184.372 134.688 191.601 92.1413 191.601C49.5945 191.601 15.1035 184.372 15.1035 175.455C15.1035 166.537 49.5945 159.309 92.1413 159.309C134.688 159.309 169.179 166.537 169.179 175.455Z" fill="#E8EEFE"/>
<path d="M54.6503 138.857H45.0469V88.741H41.2891V87.3337L46.3413 67.814H54.6503V138.857Z" fill="#1E2165"/>
<path d="M95.0262 132.365C95.0262 136.693 93.0638 138.857 89.1389 138.857H68.7631C64.8939 138.857 62.9593 136.693 62.9593 132.365V74.3508C62.9593 69.9929 64.9356 67.814 68.8883 67.814H89.1389C93.0638 67.814 95.0262 69.9929 95.0262 74.3508V132.365ZM85.4646 129.733V76.9383H72.5627V129.733H85.4646Z" fill="#1E2165"/>
<path d="M134.943 132.365C134.943 136.693 132.98 138.857 129.056 138.857H108.68C104.811 138.857 102.876 136.693 102.876 132.365V74.3508C102.876 69.9929 104.852 67.814 108.805 67.814H129.056C132.98 67.814 134.943 69.9929 134.943 74.3508V132.365ZM125.381 129.733V76.9383H112.479V129.733H125.381Z" fill="#1E2165"/>
</svg>
