<svg width="145" height="196" viewBox="0 0 145 196" fill="none" xmlns="http://www.w3.org/2000/svg">
<path fill-rule="evenodd" clip-rule="evenodd" d="M3.21219 22.5881C-4.06412 13.7933 1.82116 0 12.8521 0H131.156C142.186 0 148.066 13.7945 140.797 22.5872L140.796 22.5882L81.6446 94.0958C81.6444 94.0962 81.6441 94.0965 81.6438 94.0968C80.4402 95.5524 78.9576 96.7187 77.2951 97.5178C75.6322 98.3171 73.8277 98.7305 72.0021 98.7305C70.1766 98.7305 68.3721 98.3171 66.7092 97.5178C65.0467 96.7187 63.564 95.5524 62.3603 94.0967M62.3596 94.0958L3.21276 22.5888C3.21257 22.5885 3.21238 22.5883 3.21219 22.5881M78.0133 90.7162L74.3915 87.3437L133.543 15.8361C135.346 13.6544 133.882 10.2378 131.156 10.2378H12.8521C10.1196 10.2378 8.66067 13.655 10.4641 15.8345L69.6128 87.3438L69.6136 87.3447C69.9118 87.7054 70.2791 87.9944 70.691 88.1924C71.1029 88.3903 71.5499 88.4928 72.0021 88.4928C72.4543 88.4928 72.9013 88.3903 73.3133 88.1924C73.7251 87.9944 74.0925 87.7054 74.3907 87.3447L78.0133 90.7162Z" fill="#FF5858"/>
<path d="M74.6731 76.4455L100.933 44.4073C102.947 41.9489 101.317 38.0933 98.2636 38.0933H45.7432C42.688 38.0933 41.0578 41.9489 43.0735 44.4073L69.332 76.4455C69.6654 76.8525 70.0761 77.1786 70.5367 77.402C70.9972 77.6254 71.497 77.741 72.0026 77.741C72.5082 77.741 73.0079 77.6254 73.4685 77.402C73.929 77.1786 74.3397 76.8525 74.6731 76.4455V76.4455Z" fill="#FF5858"/>
<path fill-rule="evenodd" clip-rule="evenodd" d="M39.8925 48.2752C35.1923 42.4909 38.999 33.4287 46.113 33.4287H97.8913C105.006 33.4287 108.808 42.4921 104.112 48.2743L78.2233 80.1376C78.223 80.138 78.2227 80.1383 78.2224 80.1387C77.4455 81.0951 76.4888 81.8612 75.4162 82.3861C74.3432 82.9111 73.179 83.1827 72.0013 83.1827C70.8236 83.1827 69.6594 82.9111 68.5864 82.3861C67.5138 81.8612 66.557 81.095 65.78 80.1385M65.7793 80.1376L39.8931 48.2758C39.8929 48.2756 39.8927 48.2754 39.8925 48.2752M74.6295 76.7286L72.002 74.2348L72.0014 74.2342L71.0458 73.3273C71.0455 73.3276 71.0453 73.328 71.045 73.3283L72.0007 74.2349L72.0013 74.2355L72.0021 74.2362L74.6295 76.7286ZM72.0013 72.1513L95.0764 43.7514H48.9277L72.0013 72.1513Z" fill="#FF5858"/>
<path d="M72.5163 90.9565H70.7598C69.4373 90.9565 68.3652 92.1059 68.3652 93.5237V171.572C68.3652 172.99 69.4373 174.139 70.7598 174.139H72.5163C73.8388 174.139 74.9109 172.99 74.9109 171.572V93.5237C74.9109 92.1059 73.8388 90.9565 72.5163 90.9565Z" fill="#FF5858"/>
<path fill-rule="evenodd" clip-rule="evenodd" d="M37.1774 177.867C37.177 177.867 37.1787 177.861 37.1836 177.849C37.1803 177.861 37.1778 177.867 37.1774 177.867ZM37.3064 177.637C37.455 177.424 37.7635 177.067 38.3842 176.578C39.7897 175.47 42.1286 174.258 45.4486 173.152C52.0321 170.957 61.4217 169.521 72.0039 169.521C82.5861 169.521 91.9757 170.957 98.5593 173.152C101.879 174.258 104.218 175.47 105.624 176.578C106.244 177.067 106.553 177.424 106.701 177.637C106.553 177.85 106.244 178.208 105.624 178.697C104.218 179.804 101.879 181.016 98.5593 182.123C91.9757 184.317 82.5861 185.754 72.0039 185.754C61.4217 185.754 52.0321 184.317 45.4486 182.123C42.1286 181.016 39.7897 179.804 38.3842 178.697C37.7635 178.208 37.455 177.85 37.3064 177.637ZM106.83 177.867C106.83 177.867 106.828 177.861 106.824 177.849C106.829 177.861 106.831 177.867 106.83 177.867ZM106.824 177.426C106.828 177.414 106.83 177.408 106.83 177.408C106.831 177.408 106.829 177.414 106.824 177.426ZM37.1836 177.426C37.1787 177.414 37.177 177.408 37.1774 177.408C37.1778 177.408 37.1803 177.414 37.1836 177.426ZM42.5821 163.465C50.3243 160.885 60.7257 159.368 72.0039 159.368C83.2822 159.368 93.6835 160.885 101.426 163.465C105.269 164.746 108.727 166.377 111.327 168.426C113.837 170.404 116.369 173.46 116.369 177.637C116.369 181.814 113.837 184.87 111.327 186.848C108.726 188.897 105.269 190.528 101.426 191.809C93.6835 194.389 83.2822 195.906 72.0039 195.906C60.7257 195.906 50.3243 194.389 42.5821 191.809C38.7391 190.528 35.2814 188.897 32.681 186.848C30.1707 184.87 27.6387 181.814 27.6387 177.637C27.6387 173.46 30.1707 170.404 32.681 168.426C35.2814 166.377 38.7391 164.746 42.5821 163.465Z" fill="#FF5858"/>
</svg>
