<svg width="136" height="238" viewBox="0 0 136 238" fill="none" xmlns="http://www.w3.org/2000/svg">
<path d="M22.6574 4H38.025C38.8554 4 39.6518 4.35487 40.239 4.98654C40.8262 5.61822 41.1561 6.47495 41.1561 7.36827V64.6245C41.1555 65.4736 41.362 66.308 41.7548 67.0445C42.1477 67.781 42.7132 68.3938 43.3949 68.8218L43.5531 68.9177C47.4715 71.43 50.7138 74.9972 52.9605 79.2679C55.2072 83.5385 56.3807 88.3652 56.3654 93.2723V227.37C56.3654 229.222 55.6817 230.997 54.4647 232.307C53.2478 233.616 51.5972 234.351 49.8761 234.351H10.4899C8.76885 234.351 7.11827 233.616 5.90128 232.307C4.6843 230.997 4.0006 229.222 4.0006 227.37V93.2723C3.97309 88.6905 4.89007 84.1591 6.68556 80.0042C8.53907 75.7939 11.6012 71.2781 16.6021 69.0006C17.4743 68.5978 18.2172 67.9282 18.7386 67.0749C19.2599 66.2217 19.5367 65.2224 19.5344 64.2013L19.6155 7.28974C19.6155 6.42026 19.9355 5.58614 20.5055 4.96969C21.0755 4.35325 21.8492 4.00461 22.6574 4Z" fill="#FF5858" stroke="#FF5858" stroke-width="7" stroke-miterlimit="10"/>
<path d="M122.952 234.351H81.4104C78.9046 234.351 78.1456 230.645 80.4473 229.549C84.9364 227.401 92.2824 226.851 96.3634 226.715C97.1704 226.69 97.9367 226.327 98.5003 225.704C99.0639 225.08 99.3806 224.245 99.3834 223.374L99.5548 189.439C99.5658 188.324 99.2584 187.232 98.6744 186.311C98.0903 185.391 97.2579 184.687 96.29 184.294C65.3066 171.97 72.2117 139.294 75.5623 128.259C75.8903 127.181 76.5259 126.243 77.3784 125.578C78.2309 124.913 79.2565 124.556 80.3085 124.558H124.584C125.478 124.557 126.349 124.858 127.075 125.42C127.802 125.981 128.346 126.774 128.632 127.687C131.897 138.127 139.627 171.789 108.015 184.32C107.074 184.685 106.261 185.354 105.687 186.237C105.113 187.119 104.805 188.172 104.807 189.25L104.979 223.374C104.981 224.245 105.298 225.08 105.862 225.704C106.425 226.327 107.192 226.69 107.999 226.715C112.08 226.851 119.425 227.401 123.915 229.549C126.216 230.663 125.47 234.351 122.952 234.351Z" fill="#FF5858" stroke="#FF5858" stroke-width="7" stroke-miterlimit="10"/>
</svg>
