<svg width="1130" height="1733" viewBox="0 0 1130 1733" fill="none" xmlns="http://www.w3.org/2000/svg">
<rect x="671" width="24" height="1031" fill="white"/>
<circle r="9.5" transform="matrix(-0.93157 0.363561 0.363561 0.93157 647.633 766.304)" fill="white"/>
<circle r="9.5" transform="matrix(-0.93157 0.363561 0.363561 0.93157 607.145 811.089)" fill="white"/>
<circle r="9.5" transform="matrix(-0.93157 0.363561 0.363561 0.93157 548.229 860.918)" fill="white"/>
<circle r="9.5" transform="matrix(-0.93157 0.363561 0.363561 0.93157 475.567 889.275)" fill="white"/>
<circle r="9.5" transform="matrix(-0.93157 0.363561 0.363561 0.93157 409.038 894.844)" fill="white"/>
<circle r="9.5" transform="matrix(-0.93157 0.363561 0.363561 0.93157 356.938 885.12)" fill="white"/>
<circle r="9.5" transform="matrix(-0.93157 0.363561 0.363561 0.93157 306.541 871.511)" fill="white"/>
<circle r="9.5" transform="matrix(-0.93157 0.363561 0.363561 0.93157 263.075 850.903)" fill="white"/>
<circle r="9.5" transform="matrix(-0.93157 0.363561 0.363561 0.93157 225.471 839.816)" fill="white"/>
<circle r="9.5" transform="matrix(-0.93157 0.363561 0.363561 0.93157 188.028 875.898)" fill="white"/>
<circle r="9.5" transform="matrix(-0.93157 0.363561 0.363561 0.93157 150.901 918.298)" fill="white"/>
<circle r="9.5" transform="matrix(-0.93157 0.363561 0.363561 0.93157 95.3031 971.126)" fill="white"/>
<rect width="22" height="372" transform="matrix(1 0 0 -1 207 1136)" fill="white"/>
<rect width="229" height="24" transform="matrix(1 0 0 -1 0 787)" fill="white"/>
<path d="M121.617 1084.24C109.126 1096.74 109.126 1116.99 121.617 1129.48L195.244 1203.11C207.736 1215.6 227.988 1215.6 240.479 1203.11L314.106 1129.48C326.597 1116.99 326.597 1096.74 314.106 1084.24L240.479 1010.62C227.988 998.126 207.736 998.126 195.244 1010.62L121.617 1084.24Z" fill="white"/>
<path d="M199.413 1042.72H207.336C207.765 1042.72 208.175 1042.9 208.478 1043.21C208.781 1043.52 208.951 1043.95 208.951 1044.39V1072.73C208.951 1073.15 209.057 1073.56 209.26 1073.92C209.462 1074.29 209.754 1074.59 210.105 1074.8L210.187 1074.85C212.207 1076.09 213.879 1077.86 215.037 1079.97C216.196 1082.09 216.801 1084.48 216.793 1086.9V1153.27C216.793 1154.19 216.44 1155.06 215.813 1155.71C215.185 1156.36 214.334 1156.72 213.447 1156.72H193.139C192.252 1156.72 191.401 1156.36 190.773 1155.71C190.146 1155.06 189.793 1154.19 189.793 1153.27V1086.9C189.779 1084.64 190.252 1082.39 191.178 1080.34C192.133 1078.25 193.712 1076.02 196.291 1074.89C196.74 1074.69 197.123 1074.36 197.392 1073.94C197.661 1073.52 197.804 1073.02 197.803 1072.52L197.844 1044.35C197.844 1043.92 198.009 1043.51 198.303 1043.2C198.597 1042.9 198.996 1042.73 199.413 1042.72Z" fill="#FF5858" stroke="#FF5858" stroke-width="7" stroke-miterlimit="10"/>
<path d="M253.978 1156.72H231.605C230.255 1156.72 229.846 1154.87 231.086 1154.32C233.504 1153.24 237.46 1152.97 239.658 1152.9C240.093 1152.89 240.505 1152.7 240.809 1152.39C241.113 1152.08 241.283 1151.66 241.285 1151.22L241.377 1134.23C241.383 1133.67 241.217 1133.12 240.903 1132.66C240.588 1132.2 240.14 1131.84 239.619 1131.65C222.931 1125.47 226.65 1109.11 228.455 1103.58C228.632 1103.04 228.974 1102.57 229.433 1102.23C229.892 1101.9 230.445 1101.72 231.011 1101.72H254.857C255.339 1101.72 255.808 1101.87 256.199 1102.16C256.59 1102.44 256.884 1102.83 257.038 1103.29C258.796 1108.52 262.959 1125.38 245.933 1131.66C245.427 1131.84 244.989 1132.18 244.68 1132.62C244.37 1133.06 244.205 1133.59 244.206 1134.13L244.298 1151.22C244.3 1151.66 244.47 1152.08 244.774 1152.39C245.077 1152.7 245.49 1152.89 245.925 1152.9C248.123 1152.97 252.079 1153.24 254.497 1154.32C255.736 1154.88 255.334 1156.72 253.978 1156.72Z" fill="#FF5858" stroke="#FF5858" stroke-width="7" stroke-miterlimit="10"/>
<rect x="584" y="1005" width="99" height="26" fill="white"/>
<path d="M382.368 1044.73C367.805 1030.17 367.805 1006.56 382.368 991.994L468.203 906.158C482.765 891.596 506.376 891.596 520.938 906.158L606.774 991.994C621.336 1006.56 621.336 1030.17 606.774 1044.73L520.938 1130.56C506.376 1145.13 482.765 1145.13 468.203 1130.56L382.368 1044.73Z" fill="white"/>
<circle cx="681.5" cy="1017.5" r="13.5" fill="white"/>
<path fill-rule="evenodd" clip-rule="evenodd" d="M446.275 980.969C441.121 975.141 445.29 966 453.104 966H536.907C544.72 966 548.886 975.142 543.736 980.969L543.736 980.97L501.835 1028.36C501.834 1028.36 501.834 1028.36 501.834 1028.36C500.981 1029.32 499.931 1030.1 498.754 1030.63C497.576 1031.16 496.297 1031.43 495.004 1031.43C493.711 1031.43 492.433 1031.16 491.255 1030.63C490.077 1030.1 489.027 1029.32 488.174 1028.36M488.174 1028.36L446.276 980.97C446.276 980.97 446.276 980.97 446.275 980.969M499.262 1026.12L496.697 1023.88L538.598 976.495C539.875 975.049 538.838 972.785 536.907 972.785H453.104C451.168 972.785 450.135 975.049 451.412 976.494L493.312 1023.88L493.312 1023.88C493.523 1024.12 493.784 1024.32 494.075 1024.45C494.367 1024.58 494.684 1024.65 495.004 1024.65C495.325 1024.65 495.641 1024.58 495.933 1024.45C496.225 1024.32 496.485 1024.12 496.696 1023.88L499.262 1026.12Z" fill="#FF5858"/>
<path d="M496.896 1016.66L515.497 995.429C516.924 993.8 515.769 991.245 513.606 991.245H476.402C474.238 991.245 473.083 993.8 474.511 995.429L493.112 1016.66C493.348 1016.93 493.639 1017.15 493.965 1017.3C494.292 1017.44 494.646 1017.52 495.004 1017.52C495.362 1017.52 495.716 1017.44 496.042 1017.3C496.368 1017.15 496.659 1016.93 496.896 1016.66Z" fill="#FF5858"/>
<path fill-rule="evenodd" clip-rule="evenodd" d="M472.26 997.992C468.931 994.159 471.627 988.153 476.667 988.153H513.345C518.385 988.153 521.078 994.16 517.752 997.992L499.413 1019.11C499.412 1019.11 499.412 1019.11 499.412 1019.11C498.862 1019.74 498.184 1020.25 497.424 1020.6C496.664 1020.95 495.839 1021.13 495.005 1021.13C494.171 1021.13 493.346 1020.95 492.586 1020.6C491.826 1020.25 491.149 1019.74 490.598 1019.11M490.598 1019.11L472.261 997.993C472.261 997.993 472.26 997.992 472.26 997.992M496.867 1016.85L495.006 1015.2L495.005 1015.2L494.328 1014.59C494.328 1014.59 494.328 1014.6 494.328 1014.6L495.005 1015.2L495.005 1015.2L495.006 1015.2L496.867 1016.85ZM495.005 1013.82L511.351 994.994H478.661L495.005 1013.82Z" fill="#FF5858"/>
<path d="M495.368 1026.28H494.124C493.187 1026.28 492.428 1027.04 492.428 1027.98V1079.7C492.428 1080.64 493.187 1081.4 494.124 1081.4H495.368C496.305 1081.4 497.065 1080.64 497.065 1079.7V1027.98C497.065 1027.04 496.305 1026.28 495.368 1026.28Z" fill="#FF5858"/>
<path fill-rule="evenodd" clip-rule="evenodd" d="M470.335 1083.88C470.335 1083.88 470.336 1083.87 470.339 1083.86C470.337 1083.87 470.335 1083.88 470.335 1083.88ZM470.426 1083.72C470.532 1083.58 470.75 1083.34 471.19 1083.02C472.186 1082.29 473.842 1081.48 476.194 1080.75C480.858 1079.3 487.509 1078.34 495.005 1078.34C502.501 1078.34 509.153 1079.3 513.816 1080.75C516.168 1081.48 517.825 1082.29 518.82 1083.02C519.26 1083.34 519.479 1083.58 519.584 1083.72C519.479 1083.86 519.26 1084.1 518.82 1084.43C517.825 1085.16 516.168 1085.96 513.816 1086.7C509.153 1088.15 502.501 1089.1 495.005 1089.1C487.509 1089.1 480.858 1088.15 476.194 1086.7C473.842 1085.96 472.186 1085.16 471.19 1084.43C470.75 1084.1 470.532 1083.86 470.426 1083.72ZM519.675 1083.88C519.675 1083.88 519.673 1083.87 519.671 1083.86C519.674 1083.87 519.676 1083.88 519.675 1083.88ZM519.671 1083.58C519.673 1083.57 519.675 1083.57 519.675 1083.57C519.676 1083.57 519.674 1083.57 519.671 1083.58ZM470.339 1083.58C470.336 1083.57 470.335 1083.57 470.335 1083.57C470.335 1083.57 470.337 1083.57 470.339 1083.58ZM474.164 1074.33C479.648 1072.62 487.016 1071.62 495.005 1071.62C502.994 1071.62 510.362 1072.62 515.847 1074.33C518.569 1075.18 521.018 1076.26 522.86 1077.62C524.639 1078.93 526.432 1080.95 526.432 1083.72C526.432 1086.49 524.639 1088.52 522.86 1089.83C521.018 1091.19 518.569 1092.27 515.847 1093.11C510.362 1094.82 502.994 1095.83 495.005 1095.83C487.016 1095.83 479.648 1094.82 474.164 1093.11C471.441 1092.27 468.992 1091.19 467.15 1089.83C465.372 1088.52 463.578 1086.49 463.578 1083.72C463.578 1080.95 465.372 1078.93 467.15 1077.62C468.992 1076.26 471.441 1075.18 474.164 1074.33Z" fill="#FF5858"/>
<path d="M898.075 1317.23C900.624 1318.89 901.543 1320.01 901.862 1320.5C901.543 1320.99 900.624 1322.11 898.075 1323.77C894.006 1326.41 887.486 1329.26 878.329 1332.14C860.13 1337.85 833.383 1343.11 799.843 1347.57C732.881 1356.47 640.124 1362 537.5 1362C434.876 1362 342.119 1356.47 275.157 1347.57C241.617 1343.11 214.87 1337.85 196.671 1332.14C187.514 1329.26 180.994 1326.41 176.925 1323.77C174.376 1322.11 173.457 1320.99 173.138 1320.5C173.457 1320.01 174.376 1318.89 176.925 1317.23C180.994 1314.59 187.514 1311.74 196.671 1308.86C214.87 1303.15 241.617 1297.89 275.157 1293.43C342.119 1284.53 434.876 1279 537.5 1279C640.124 1279 732.881 1284.53 799.843 1293.43C833.383 1297.89 860.13 1303.15 878.329 1308.86C887.486 1311.74 894.006 1314.59 898.075 1317.23Z" fill="#FF5858" stroke="#1F2266" stroke-width="16"/>
<ellipse cx="537.5" cy="1320.5" rx="372.5" ry="49.5" fill="#FF5858"/>
<path d="M898.106 1294.85C900.541 1296.42 901.482 1297.49 901.832 1298C901.482 1298.51 900.541 1299.58 898.106 1301.15C894.035 1303.76 887.511 1306.59 878.351 1309.43C860.147 1315.1 833.395 1320.3 799.854 1324.72C732.887 1333.53 640.127 1339 537.5 1339C434.873 1339 342.113 1333.53 275.146 1324.72C241.605 1320.3 214.853 1315.1 196.649 1309.43C187.489 1306.59 180.965 1303.76 176.894 1301.15C174.459 1299.58 173.518 1298.51 173.168 1298C173.518 1297.49 174.459 1296.42 176.894 1294.85C180.965 1292.24 187.489 1289.41 196.649 1286.57C214.853 1280.9 241.605 1275.7 275.146 1271.28C342.113 1262.47 434.873 1257 537.5 1257C640.127 1257 732.887 1262.47 799.854 1271.28C833.395 1275.7 860.147 1280.9 878.351 1286.57C887.511 1289.41 894.035 1292.24 898.106 1294.85Z" fill="#FF5858" stroke="#1F2266" stroke-width="16"/>
<ellipse cx="537.5" cy="1298" rx="372.5" ry="49" fill="#FF5858"/>
<path d="M343.445 1686.95C343.441 1686.95 343.463 1686.92 343.523 1686.86C343.479 1686.92 343.449 1686.95 343.445 1686.95ZM355.703 1688.65C351.537 1687.35 348.462 1686.11 346.342 1685C348.462 1683.89 351.537 1682.65 355.703 1681.35C366.217 1678.08 381.838 1675.03 401.626 1672.43C441.087 1667.24 495.847 1664 556.5 1664C617.153 1664 671.913 1667.24 711.374 1672.43C731.162 1675.03 746.783 1678.08 757.297 1681.35C761.463 1682.65 764.538 1683.89 766.658 1685C764.538 1686.11 761.463 1687.35 757.297 1688.65C746.783 1691.92 731.162 1694.97 711.374 1697.57C671.913 1702.76 617.153 1706 556.5 1706C495.847 1706 441.087 1702.76 401.626 1697.57C381.838 1694.97 366.217 1691.92 355.703 1688.65ZM769.555 1686.95C769.551 1686.95 769.521 1686.92 769.477 1686.86C769.537 1686.92 769.559 1686.95 769.555 1686.95ZM769.555 1683.05C769.559 1683.05 769.537 1683.08 769.477 1683.14C769.521 1683.08 769.551 1683.05 769.555 1683.05ZM343.523 1683.14C343.463 1683.08 343.441 1683.05 343.445 1683.05C343.449 1683.05 343.479 1683.08 343.523 1683.14Z" fill="#FF5858" stroke="#1F2266" stroke-width="16"/>
<ellipse cx="556.5" cy="1685" rx="220.5" ry="29" transform="rotate(-180 556.5 1685)" fill="#FF5858"/>
<path d="M306.872 1031H326.534C327.596 1031 328.615 1031.43 329.367 1032.19C330.118 1032.95 330.54 1033.99 330.54 1035.07V1104.16C330.539 1105.19 330.803 1106.2 331.306 1107.09C331.809 1107.97 332.532 1108.71 333.404 1109.23L333.607 1109.35C338.62 1112.38 342.769 1116.68 345.643 1121.84C348.518 1126.99 350.019 1132.82 350 1138.74V1300.58C350 1302.81 349.125 1304.95 347.568 1306.53C346.011 1308.11 343.899 1309 341.697 1309H291.304C289.102 1309 286.99 1308.11 285.433 1306.53C283.876 1304.95 283.001 1302.81 283.001 1300.58V1138.74C282.966 1133.21 284.139 1127.74 286.436 1122.73C288.808 1117.64 292.726 1112.19 299.124 1109.45C300.24 1108.96 301.19 1108.15 301.858 1107.12C302.525 1106.09 302.879 1104.89 302.876 1103.65L302.98 1034.97C302.98 1033.92 303.389 1032.91 304.118 1032.17C304.848 1031.43 305.837 1031.01 306.872 1031Z" fill="#E8EEFE" stroke="#1E2165" stroke-width="7" stroke-miterlimit="10"/>
<path d="M306.872 1031H326.534C327.596 1031 328.615 1031.43 329.367 1032.19C330.118 1032.95 330.54 1033.99 330.54 1035.07V1104.16C330.539 1105.19 330.803 1106.2 331.306 1107.09C331.809 1107.97 332.532 1108.71 333.404 1109.23L333.607 1109.35C338.62 1112.38 342.769 1116.68 345.643 1121.84C348.518 1126.99 350.019 1132.82 350 1138.74V1300.58C350 1302.81 349.125 1304.95 347.568 1306.53C346.011 1308.11 343.899 1309 341.697 1309H291.304C289.102 1309 286.99 1308.11 285.433 1306.53C283.876 1304.95 283.001 1302.81 283.001 1300.58V1138.74C282.966 1133.21 284.139 1127.74 286.436 1122.73C288.808 1117.64 292.726 1112.19 299.124 1109.45C300.24 1108.96 301.19 1108.15 301.858 1107.12C302.525 1106.09 302.879 1104.89 302.876 1103.65L302.98 1034.97C302.98 1033.92 303.389 1032.91 304.118 1032.17C304.848 1031.43 305.837 1031.01 306.872 1031Z" fill="#5886FF" stroke="#5886FF" stroke-width="7" stroke-miterlimit="10"/>
<path d="M497.311 1296.84C477.345 1286.49 497.996 1286.13 510.817 1287.25C524.324 1277.65 551.924 1277.44 622.393 1275.98C692.861 1274.52 640.597 1272.64 754.521 1287.25H834.092C872.38 1287.25 874.318 1293.64 870.501 1296.84C870.501 1296.84 879.093 1341.08 874.797 1341.98C870.501 1342.88 870.501 1314.79 870.501 1314.79C847.785 1329.96 824.637 1308.28 768.028 1314.79C729.27 1324.6 743.07 1314.79 722.517 1314.79C701.963 1314.79 690.806 1306.65 661.15 1296.84C631.495 1287.04 627.09 1296.84 570.128 1314.79C513.166 1332.74 522.269 1309.78 497.311 1296.84Z" fill="white" stroke="white" stroke-width="11"/>
<path d="M497.311 1296.84C477.345 1286.49 497.996 1286.13 510.817 1287.25C524.324 1277.65 551.924 1277.44 622.393 1275.98C692.861 1274.52 640.597 1272.64 754.521 1287.25H834.092C872.38 1287.25 874.318 1293.64 870.501 1296.84C870.501 1296.84 879.093 1341.08 874.797 1341.98C870.501 1342.88 870.501 1314.79 870.501 1314.79C847.785 1329.96 824.637 1308.28 768.028 1314.79C729.27 1324.6 743.07 1314.79 722.517 1314.79C701.963 1314.79 690.806 1306.65 661.15 1296.84C631.495 1287.04 627.09 1296.84 570.128 1314.79C513.166 1332.74 522.269 1309.78 497.311 1296.84Z" fill="white" stroke="white" stroke-width="11"/>
<path d="M862.72 1714.11C850.822 1715.18 836.803 1716.09 827.022 1715.72C816.704 1715.33 806.482 1713.92 799.844 1712.92C796.763 1712.84 794.302 1712.62 793.134 1712.23C790.823 1711.44 793.895 1712.02 799.844 1712.92C809.668 1713.17 825.791 1712.02 826.323 1710.75C827.022 1709.1 830.865 1704.69 811.999 1703.95C793.134 1703.21 759.945 1700.45 793.134 1699.17C826.323 1697.88 819.336 1691.99 843.442 1696.96C867.548 1701.93 872.788 1703.95 889.907 1703.95C907.026 1703.95 904.929 1702.48 917.856 1701.74C930.782 1701.01 941.612 1696.59 949.648 1699.17C957.683 1701.74 969.91 1691.26 962.923 1701.74C955.936 1712.23 937.42 1708.73 936.721 1712.23C936.023 1715.72 934.276 1713.33 943.708 1715.72C943.708 1725.84 952.093 1729.15 932.529 1725.65C890.885 1720.95 862.773 1721.36 853.923 1722.16C856.135 1723.26 857.137 1725.14 843.442 1723.81C836.282 1719.37 848.808 1716.1 862.72 1714.11Z" fill="white" stroke="white" stroke-width="11"/>
<path d="M934.287 1705.75C912.219 1706.35 886.215 1706.86 868.073 1706.66C848.934 1706.44 829.975 1705.64 817.661 1705.08C811.947 1705.03 807.382 1704.91 805.216 1704.69C800.929 1704.25 806.628 1704.57 817.661 1705.08C835.885 1705.22 865.79 1704.57 866.777 1703.86C868.073 1702.93 875.201 1700.45 840.209 1700.03C805.216 1699.62 743.656 1698.07 805.216 1697.34C866.777 1696.62 853.817 1693.31 898.529 1696.1C943.242 1698.9 952.962 1700.03 984.714 1700.03C1016.47 1700.03 1012.58 1699.21 1036.56 1698.79C1060.53 1698.38 1080.62 1695.9 1095.52 1697.34C1110.43 1698.79 1133.11 1692.89 1120.15 1698.79C1107.19 1704.69 1072.84 1702.72 1071.55 1704.69C1070.25 1706.66 1067.01 1705.31 1084.51 1706.66C1084.51 1712.35 1100.06 1714.21 1063.77 1712.24C986.529 1709.59 934.386 1709.83 917.97 1710.28C922.074 1710.9 923.932 1711.95 898.529 1711.21C885.248 1708.71 908.483 1706.87 934.287 1705.75Z" fill="white" stroke="white" stroke-width="11"/>
<path d="M383.247 1324.91L374.472 1271.62C373.943 1268.41 378.184 1266.71 379.972 1269.45C383.471 1274.79 385.676 1284.1 386.7 1289.31C386.901 1290.34 387.493 1291.25 388.353 1291.85C389.212 1292.45 390.271 1292.7 391.306 1292.53L431.646 1286.11C432.973 1285.91 434.205 1285.3 435.174 1284.37C436.144 1283.44 436.805 1282.24 437.067 1280.92C445.16 1238.76 485.427 1241.23 499.24 1243.37C500.589 1243.58 501.838 1244.21 502.808 1245.18C503.778 1246.14 504.419 1247.39 504.639 1248.74L513.991 1305.53C514.181 1306.68 514.007 1307.85 513.493 1308.9C512.98 1309.94 512.153 1310.79 511.129 1311.34C499.419 1317.57 461.072 1334.06 439.512 1295.96C438.88 1294.83 437.913 1293.92 436.744 1293.35C435.575 1292.79 434.26 1292.6 432.98 1292.81L392.488 1299.71C391.454 1299.88 390.529 1300.45 389.907 1301.3C389.286 1302.14 389.017 1303.19 389.158 1304.23C389.858 1309.5 390.756 1319.03 389.153 1325.2C388.317 1328.38 383.778 1328.14 383.247 1324.91Z" fill="#E8EEFE" stroke="#1E2165" stroke-width="7" stroke-miterlimit="10"/>
<path d="M383.247 1324.91L374.472 1271.62C373.943 1268.41 378.184 1266.71 379.972 1269.45C383.471 1274.79 385.676 1284.1 386.7 1289.31C386.901 1290.34 387.493 1291.25 388.353 1291.85C389.212 1292.45 390.271 1292.7 391.306 1292.53L431.646 1286.11C432.973 1285.91 434.205 1285.3 435.174 1284.37C436.144 1283.44 436.805 1282.24 437.067 1280.92C445.16 1238.76 485.427 1241.23 499.24 1243.37C500.589 1243.58 501.838 1244.21 502.808 1245.18C503.778 1246.14 504.419 1247.39 504.639 1248.74L513.991 1305.53C514.181 1306.68 514.007 1307.85 513.493 1308.9C512.98 1309.94 512.153 1310.79 511.129 1311.34C499.419 1317.57 461.072 1334.06 439.512 1295.96C438.88 1294.83 437.913 1293.92 436.744 1293.35C435.575 1292.79 434.26 1292.6 432.98 1292.81L392.488 1299.71C391.454 1299.88 390.529 1300.45 389.907 1301.3C389.286 1302.14 389.017 1303.19 389.158 1304.23C389.858 1309.5 390.756 1319.03 389.153 1325.2C388.317 1328.38 383.778 1328.14 383.247 1324.91Z" fill="#5886FF" stroke="#5886FF" stroke-width="7" stroke-miterlimit="10"/>
<rect x="530" y="1378" width="29" height="299" fill="#FF5858" stroke="#1F2266" stroke-width="16"/>
<rect x="522" y="1370" width="45" height="315" fill="#FF5858"/>
<rect x="165" y="1298" width="36" height="23" fill="#FF5858"/>
<rect x="5.24369" y="-5.25631" width="10.5" height="147.5" transform="matrix(0.999999 -0.00120215 -0.00120215 -0.999999 154.218 1685.43)" fill="#5886FF" stroke="#5886FF" stroke-width="10.5"/>
<rect x="5.24369" y="-5.25631" width="10.5" height="149.5" transform="matrix(0.999999 -0.00120215 -0.00120215 -0.999999 230.22 1686.34)" fill="#C0C0C0" stroke="#5886FF" stroke-width="10.5"/>
<rect x="5.24369" y="-5.25631" width="10.5" height="149.5" transform="matrix(0.999999 -0.00120215 -0.00120215 -0.999999 230.22 1686.34)" fill="#5886FF" stroke="#5886FF" stroke-width="10.5"/>
<rect x="8.00961" y="7.99038" width="202" height="28" transform="matrix(0.00120211 0.999999 0.999999 -0.00120211 55.0096 1509.04)" fill="#5886FF" stroke="#5886FF" stroke-width="16"/>
<rect x="8.00961" y="7.99038" width="202" height="28" transform="matrix(0.00120211 0.999999 0.999999 -0.00120211 55.0096 1509.04)" fill="#5886FF" stroke="#5886FF" stroke-width="16"/>
<rect x="5.50661" y="5.49338" width="18" height="210" transform="matrix(0.00120211 0.999999 0.999999 -0.00120211 99.0398 1536.99)" fill="#5886FF" stroke="#5886FF" stroke-width="11"/>
<rect x="5.50661" y="5.49338" width="18" height="210" transform="matrix(0.00120211 0.999999 0.999999 -0.00120211 99.198 1667.99)" fill="#5886FF" stroke="#5886FF" stroke-width="11"/>
<rect x="5.50661" y="5.49338" width="18" height="210" transform="matrix(0.00120211 0.999999 0.999999 -0.00120211 99.198 1667.99)" fill="#5886FF" stroke="#5886FF" stroke-width="11"/>
<circle r="9.5" transform="matrix(-1 0 0 1 43.5 1000.5)" fill="white"/>
</svg>
